<svg width="24" height="24" viewBox="0 0 24 24" fill="none" xmlns="http://www.w3.org/2000/svg">
<g clip-path="url(#clip0_120215_3143)">
<path d="M14.7792 5.67054C15.6057 4.91571 16.125 3.8299 16.125 2.62502V0.75002C16.125 0.508942 16.0091 0.282535 15.8135 0.141582C15.618 0.000629097 15.3666 -0.0377147 15.1378 0.0385041L13.764 0.496473C12.6264 0.875645 11.3735 0.875645 10.236 0.496473L8.86214 0.0385041C8.63353 -0.0377615 8.382 0.000629097 8.18644 0.141582C7.99087 0.282535 7.875 0.508942 7.875 0.75002V2.62502C7.875 3.8299 8.39433 4.91571 9.22078 5.67054C5.40408 6.85765 2.625 10.4229 2.625 14.625V20.9063C2.625 22.6122 4.01283 24 5.71875 24H18.2812C19.9872 24 21.375 22.6122 21.375 20.9063V14.625C21.375 10.4229 18.5959 6.85765 14.7792 5.67054ZM9.375 2.62502V1.7906L9.76172 1.9195C11.2051 2.40063 12.7949 2.40068 14.2383 1.9195L14.625 1.7906V2.62502C14.625 4.07243 13.4475 5.25002 12 5.25002C10.5526 5.25002 9.375 4.07247 9.375 2.62502ZM19.875 20.9063C19.875 21.7851 19.1601 22.5 18.2812 22.5H5.71875C4.83994 22.5 4.125 21.7851 4.125 20.9063V14.625C4.125 10.2827 7.65769 6.75002 12 6.75002C16.3423 6.75002 19.875 10.2827 19.875 14.625V20.9063Z" fill="white"/>
<path d="M12 13.875C11.1729 13.875 10.5 13.2021 10.5 12.375C10.5 11.5479 11.1729 10.875 12 10.875C12.8271 10.875 13.5 11.5479 13.5 12.375C13.5 12.7892 13.8358 13.125 14.25 13.125C14.6642 13.125 15 12.7892 15 12.375C15 10.9797 14.0424 9.80381 12.75 9.46992V9C12.75 8.58581 12.4142 8.25 12 8.25C11.5858 8.25 11.25 8.58581 11.25 9V9.46992C9.95756 9.80381 9 10.9797 9 12.375C9 14.0292 10.3458 15.375 12 15.375C12.8271 15.375 13.5 16.0479 13.5 16.875C13.5 17.7021 12.8271 18.375 12 18.375C11.1729 18.375 10.5 17.7021 10.5 16.875C10.5 16.4608 10.1642 16.125 9.75 16.125C9.33581 16.125 9 16.4608 9 16.875C9 18.2703 9.95756 19.4462 11.25 19.7801V20.25C11.25 20.6642 11.5858 21 12 21C12.4142 21 12.75 20.6642 12.75 20.25V19.7801C14.0424 19.4462 15 18.2703 15 16.875C15 15.2208 13.6542 13.875 12 13.875Z" fill="white"/>
</g>
<defs>
<clipPath id="clip0_120215_3143">
<rect width="24" height="24" fill="white"/>
</clipPath>
</defs>
</svg>
