<svg width="20" height="20" viewBox="0 0 20 20" fill="none" xmlns="http://www.w3.org/2000/svg">
<path fill-rule="evenodd" clip-rule="evenodd" d="M19.7071 0.325437C20.0976 0.759353 20.0976 1.46287 19.7071 1.89679L7.70711 15.2301C7.31658 15.664 6.68342 15.664 6.29289 15.2301L0.292893 8.56345C-0.097631 8.12954 -0.097631 7.42602 0.292893 6.9921C0.683419 6.55819 1.31658 6.55819 1.70711 6.9921L7 12.8731L18.2929 0.325437C18.6834 -0.108479 19.3166 -0.108479 19.7071 0.325437Z" fill="#70ff79"/>
<path fill-rule="evenodd" clip-rule="evenodd" d="M19.7071 4.76988C20.0976 5.2038 20.0976 5.90731 19.7071 6.34123L7.70711 19.6746C7.31658 20.1085 6.68342 20.1085 6.29289 19.6746L0.292893 13.0079C-0.097631 12.574 -0.097631 11.8705 0.292893 11.4365C0.683419 11.0026 1.31658 11.0026 1.70711 11.4365L7 17.3175L18.2929 4.76988C18.6834 4.33597 19.3166 4.33597 19.7071 4.76988Z" fill="#70ff79"/>
</svg>
