<svg width="29" height="35" viewBox="0 0 29 35" fill="none" xmlns="http://www.w3.org/2000/svg">
<path d="M25.7149 13.9377C25.7051 13.9239 25.6952 13.9103 25.685 13.8967L16.0027 0.92379C15.5702 0.34432 14.8672 0 14.1174 0C14.1143 0 14.1112 0 14.1081 0C13.3551 0.0029394 12.6507 0.35307 12.2215 0.938078L2.80272 13.7764C-0.282041 17.7751 -0.78599 23.0427 1.48821 27.5314C3.7416 31.9785 8.16484 34.7645 13.321 34.9842C13.5586 34.9942 13.799 34.9993 14.0354 34.9993C14.2721 34.9993 14.5124 34.9942 14.7503 34.9842C19.848 34.7671 24.2779 32.0379 26.6004 27.6839C28.9853 23.2126 28.6544 18.0738 25.7149 13.9377Z" fill="#F27B1D"/>
<path d="M14.1174 0C14.1143 0 14.1112 0 14.1081 0C13.3551 0.0029394 12.6507 0.35307 12.2215 0.938078L2.80272 13.7764C-0.282041 17.7751 -0.78599 23.0427 1.48821 27.5314C3.7416 31.9785 8.16484 34.7645 13.321 34.9842C13.5586 34.9942 13.799 34.9993 14.0354 34.9993L14.1174 0Z" fill="#FFD370"/>
<path d="M20.2208 23.8407C20.2156 23.8334 20.2104 23.8261 20.205 23.819L15.0757 16.9464C14.8466 16.6394 14.4742 16.457 14.0769 16.457C14.0754 16.457 14.0737 16.457 14.072 16.457C13.6732 16.4585 13.3 16.6441 13.0726 16.954L8.08288 23.7552C6.44869 25.8735 6.18168 28.6641 7.38654 31.042C8.58025 33.3979 10.9235 34.8738 13.6551 34.9902C13.781 34.9955 13.9083 34.9982 14.0335 34.9982C14.1588 34.9982 14.2862 34.9955 14.4122 34.9902C17.1128 34.8751 19.4595 33.4294 20.6898 31.1228C21.9534 28.7541 21.778 26.0318 20.2208 23.8407Z" fill="#C11D26"/>
<path d="M14.0769 16.457C14.0754 16.457 14.0737 16.457 14.072 16.457C13.6732 16.4585 13.3 16.6441 13.0726 16.954L8.08288 23.7552C6.44869 25.8735 6.18168 28.6641 7.38654 31.042C8.58025 33.3979 10.9235 34.8738 13.6551 34.9902C13.781 34.9955 13.9083 34.9982 14.0335 34.9982L14.0769 16.457Z" fill="#F54831"/>
<path d="M16.8936 29.892C16.8912 29.8886 16.8888 29.8854 16.8864 29.8821L14.5381 26.7358C14.4332 26.5952 14.2627 26.5117 14.0809 26.5117H14.0787C13.8961 26.5125 13.7253 26.5973 13.6211 26.7392L11.3368 29.8529C10.5887 30.8227 10.4664 32.1002 11.018 33.1888C11.5645 34.2674 12.6373 34.9431 13.8879 34.9963C13.9455 34.9987 14.0038 35 14.0612 35C14.1186 35 14.1768 34.9987 14.2346 34.9963C15.4709 34.9437 16.5453 34.2818 17.1086 33.2258C17.6867 32.1413 17.6065 30.8951 16.8936 29.892Z" fill="#F27B1D"/>
<path d="M14.0809 26.5117H14.0787C13.8961 26.5125 13.7253 26.5973 13.6211 26.7392L11.3368 29.8529C10.5887 30.8227 10.4664 32.1002 11.018 33.1888C11.5645 34.2674 12.6373 34.9431 13.8879 34.9963C13.9455 34.9987 14.0038 35 14.0612 35L14.0809 26.5117Z" fill="#FFD370"/>
</svg>
