<svg width="25" height="24" viewBox="0 0 25 24" fill="none" xmlns="http://www.w3.org/2000/svg">
<path fill-rule="evenodd" clip-rule="evenodd" d="M10.9998 3.25C9.06685 3.25 7.49984 4.817 7.49984 6.75C7.49984 8.683 9.06685 10.25 10.9998 10.25C12.9328 10.25 14.4998 8.683 14.4998 6.75C14.4998 4.817 12.9328 3.25 10.9998 3.25ZM5.49984 6.75C5.49984 3.71243 7.96228 1.25 10.9998 1.25C14.0374 1.25 16.4998 3.71243 16.4998 6.75C16.4998 9.78757 14.0374 12.25 10.9998 12.25C7.96228 12.25 5.49984 9.78757 5.49984 6.75Z" fill="#1c1f24"/>
<path fill-rule="evenodd" clip-rule="evenodd" d="M5.1039 15.25C4.41058 15.25 3.86868 15.5876 3.6487 16.0726C3.34424 16.7439 3.06854 17.5432 3.00348 18.3012C2.9744 18.64 3.11569 18.8897 3.31037 19.0107C4.33952 19.65 6.72424 20.75 10.9998 20.75C15.2755 20.75 17.6602 19.65 18.6893 19.0107C18.884 18.8897 19.0253 18.64 18.9962 18.3012C18.9311 17.5432 18.6554 16.7439 18.351 16.0726C18.131 15.5876 17.5891 15.25 16.8958 15.25H5.1039ZM1.82727 15.2466C2.43522 13.9061 3.79275 13.25 5.1039 13.25H16.8958C18.2069 13.25 19.5645 13.9061 20.1724 15.2466C20.5216 16.0165 20.8963 17.0515 20.9889 18.1301C21.0732 19.1124 20.6649 20.1379 19.7447 20.7096C18.3911 21.5504 15.6394 22.75 10.9998 22.75C6.36025 22.75 3.60854 21.5504 2.25501 20.7096C1.33475 20.1379 0.926506 19.1124 1.01081 18.1301C1.10339 17.0515 1.47809 16.0165 1.82727 15.2466Z" fill="#1c1f24"/>
<path fill-rule="evenodd" clip-rule="evenodd" d="M20.9489 1.77072C21.11 1.77072 21.2406 1.90131 21.2406 2.06239V4.65807L23.8362 4.65808C23.9973 4.65808 24.1279 4.78866 24.1279 4.94974C24.1279 5.11083 23.9973 5.24141 23.8362 5.24141L21.2406 5.24141V7.8371C21.2406 7.99818 21.11 8.12876 20.9489 8.12876C20.7878 8.12876 20.6572 7.99818 20.6572 7.8371L20.6572 5.24141L18.0615 5.24141C17.9005 5.24141 17.7699 5.11083 17.7699 4.94974C17.7699 4.78866 17.9004 4.65808 18.0615 4.65808L20.6572 4.65807V2.06239C20.6572 1.90131 20.7878 1.77072 20.9489 1.77072Z" fill="#1c1f24"/>
<path d="M3.6487 16.0726L3.19335 15.8661L3.19335 15.8661L3.6487 16.0726ZM3.00348 18.3012L3.50165 18.3439L3.50165 18.3439L3.00348 18.3012ZM2.37227 19.5732C2.22656 19.8078 2.29859 20.1161 2.53315 20.2618C2.76772 20.4075 3.076 20.3355 3.22172 20.1009L2.37227 19.5732ZM18.6893 19.0107L18.4255 18.586L18.4255 18.586L18.6893 19.0107ZM18.9962 18.3012L18.498 18.3439L18.498 18.3439L18.9962 18.3012ZM18.351 16.0726L18.8063 15.8661L18.8063 15.8661L18.351 16.0726ZM1.82727 15.2466L1.37191 15.04L1.82727 15.2466ZM20.1724 15.2466L20.6278 15.04L20.6278 15.04L20.1724 15.2466ZM20.9889 18.1301L20.4907 18.1729L20.4907 18.1729L20.9889 18.1301ZM19.7447 20.7096L20.0085 21.1343L20.0085 21.1343L19.7447 20.7096ZM2.25501 20.7096L2.51885 20.2848L2.51885 20.2848L2.25501 20.7096ZM1.01081 18.1301L1.50898 18.1729L1.01081 18.1301ZM21.2406 2.06239L20.7406 2.06239V2.06239H21.2406ZM20.9489 1.77072L20.9489 2.27072L20.9489 2.27072L20.9489 1.77072ZM21.2406 4.65807H20.7406C20.7406 4.93422 20.9644 5.15807 21.2406 5.15807L21.2406 4.65807ZM23.8362 4.65808L23.8362 4.15808L23.8362 4.15808L23.8362 4.65808ZM24.1279 4.94974L24.6279 4.94974L24.6279 4.94974L24.1279 4.94974ZM23.8362 5.24141L23.8362 5.74141L23.8362 5.74141L23.8362 5.24141ZM21.2406 5.24141L21.2406 4.74141C21.1079 4.74141 20.9808 4.79409 20.887 4.88785C20.7932 4.98162 20.7406 5.1088 20.7406 5.24141H21.2406ZM21.2406 7.8371L20.7406 7.8371L20.7406 7.8371L21.2406 7.8371ZM20.9489 8.12876L20.9489 7.62876L20.9489 7.62876L20.9489 8.12876ZM20.6572 7.8371L21.1572 7.8371L21.1572 7.8371L20.6572 7.8371ZM20.6572 5.24141L21.1572 5.24141C21.1572 5.1088 21.1045 4.98162 21.0108 4.88785C20.917 4.79409 20.7898 4.74141 20.6572 4.74141L20.6572 5.24141ZM18.0615 5.24141L18.0615 5.74141L18.0615 5.74141L18.0615 5.24141ZM17.7699 4.94974L17.2699 4.94974L17.2699 4.94974L17.7699 4.94974ZM18.0615 4.65808L18.0615 4.15808L18.0615 4.15808L18.0615 4.65808ZM20.6572 4.65807L20.6572 5.15807C20.9334 5.15807 21.1572 4.93422 21.1572 4.65807H20.6572ZM20.6572 2.06239L21.1572 2.06239V2.06239L20.6572 2.06239ZM10.9998 2.75C8.7907 2.75 6.99984 4.54086 6.99984 6.75H7.99984C7.99984 5.09315 9.34299 3.75 10.9998 3.75V2.75ZM6.99984 6.75C6.99984 8.95914 8.7907 10.75 10.9998 10.75V9.75C9.34299 9.75 7.99984 8.40685 7.99984 6.75H6.99984ZM10.9998 10.75C13.209 10.75 14.9998 8.95914 14.9998 6.75H13.9998C13.9998 8.40685 12.6567 9.75 10.9998 9.75V10.75ZM14.9998 6.75C14.9998 4.54086 13.209 2.75 10.9998 2.75V3.75C12.6567 3.75 13.9998 5.09315 13.9998 6.75H14.9998ZM5.99984 6.75C5.99984 3.98858 8.23842 1.75 10.9998 1.75V0.75C7.68614 0.75 4.99984 3.43629 4.99984 6.75H5.99984ZM10.9998 1.75C13.7613 1.75 15.9998 3.98858 15.9998 6.75H16.9998C16.9998 3.43629 14.3136 0.75 10.9998 0.75V1.75ZM15.9998 6.75C15.9998 9.51142 13.7613 11.75 10.9998 11.75V12.75C14.3136 12.75 16.9998 10.0637 16.9998 6.75H15.9998ZM10.9998 11.75C8.23842 11.75 5.99984 9.51142 5.99984 6.75H4.99984C4.99984 10.0637 7.68614 12.75 10.9998 12.75V11.75ZM5.1039 14.75C4.25231 14.75 3.50896 15.1702 3.19335 15.8661L4.10406 16.2791C4.22839 16.005 4.56885 15.75 5.1039 15.75V14.75ZM3.19335 15.8661C2.87774 16.562 2.57726 17.4202 2.50532 18.2584L3.50165 18.3439C3.55983 17.6662 3.81075 16.9259 4.10406 16.2791L3.19335 15.8661ZM2.50532 18.2584C2.46202 18.7628 2.67408 19.204 3.04653 19.4354L3.57421 18.586C3.5573 18.5755 3.48678 18.5172 3.50165 18.3439L2.50532 18.2584ZM2.88564 18.7468L2.37227 19.5732L3.22172 20.1009L3.73509 19.2745L2.88564 18.7468ZM3.04653 19.4354C4.15677 20.1251 6.63323 21.25 10.9998 21.25V20.25C6.81524 20.25 4.52227 19.1749 3.57421 18.586L3.04653 19.4354ZM10.9998 21.25C15.3665 21.25 17.8429 20.1251 18.9532 19.4354L18.4255 18.586C17.4774 19.1749 15.1844 20.25 10.9998 20.25V21.25ZM18.9532 19.4354C19.3256 19.204 19.5377 18.7628 19.4944 18.2584L18.498 18.3439C18.5129 18.5172 18.4424 18.5755 18.4255 18.586L18.9532 19.4354ZM19.4944 18.2584C19.4224 17.4202 19.122 16.562 18.8063 15.8661L17.8956 16.2791C18.1889 16.9259 18.4399 17.6662 18.498 18.3439L19.4944 18.2584ZM18.8063 15.8661C18.4907 15.1702 17.7474 14.75 16.8958 14.75V15.75C17.4308 15.75 17.7713 16.005 17.8956 16.2791L18.8063 15.8661ZM16.8958 14.75H5.1039V15.75H16.8958V14.75ZM2.28263 15.4531C2.793 14.3277 3.94555 13.75 5.1039 13.75V12.75C3.63995 12.75 2.07743 13.4844 1.37191 15.04L2.28263 15.4531ZM5.1039 13.75H16.8958V12.75H5.1039V13.75ZM16.8958 13.75C18.0541 13.75 19.2067 14.3277 19.7171 15.4531L20.6278 15.04C19.9223 13.4844 18.3597 12.75 16.8958 12.75V13.75ZM19.7171 15.4531C20.055 16.1983 20.405 17.1744 20.4907 18.1729L21.487 18.0874C21.3876 16.9286 20.9882 15.8347 20.6278 15.04L19.7171 15.4531ZM20.4907 18.1729C20.5613 18.9955 20.2187 19.8265 19.4808 20.2848L20.0085 21.1343C21.1111 20.4493 21.585 19.2292 21.487 18.0874L20.4907 18.1729ZM19.4808 20.2848C18.2084 21.0753 15.5484 22.25 10.9998 22.25V23.25C15.7304 23.25 18.5739 22.0255 20.0085 21.1343L19.4808 20.2848ZM10.9998 22.25C6.45124 22.25 3.79129 21.0753 2.51885 20.2848L1.99117 21.1343C3.4258 22.0255 6.26925 23.25 10.9998 23.25V22.25ZM2.51885 20.2848C1.78094 19.8265 1.43837 18.9955 1.50898 18.1729L0.512642 18.0874C0.41464 19.2292 0.888549 20.4493 1.99117 21.1343L2.51885 20.2848ZM1.50898 18.1729C1.59468 17.1744 1.94465 16.1983 2.28263 15.4531L1.37191 15.04C1.01152 15.8347 0.612096 16.9286 0.512642 18.0874L1.50898 18.1729ZM21.7406 2.06239C21.7406 1.62517 21.3861 1.27072 20.9489 1.27072L20.9489 2.27072C20.8338 2.27072 20.7406 2.17745 20.7406 2.06239L21.7406 2.06239ZM21.7406 4.65807V2.06239H20.7406V4.65807H21.7406ZM23.8362 4.15808L21.2406 4.15807L21.2406 5.15807L23.8362 5.15808L23.8362 4.15808ZM24.6279 4.94974C24.6279 4.51252 24.2735 4.15808 23.8362 4.15808L23.8362 5.15808C23.7212 5.15808 23.6279 5.0648 23.6279 4.94974L24.6279 4.94974ZM23.8362 5.74141C24.2735 5.74141 24.6279 5.38697 24.6279 4.94974L23.6279 4.94974C23.6279 4.83468 23.7212 4.74141 23.8362 4.74141L23.8362 5.74141ZM21.2406 5.74141L23.8362 5.74141L23.8362 4.74141L21.2406 4.74141L21.2406 5.74141ZM21.7406 7.8371V5.24141H20.7406V7.8371H21.7406ZM20.9489 8.62876C21.3861 8.62876 21.7406 8.27432 21.7406 7.83709L20.7406 7.8371C20.7406 7.72204 20.8338 7.62876 20.9489 7.62876L20.9489 8.62876ZM20.1572 7.83709C20.1572 8.27432 20.5117 8.62876 20.9489 8.62876L20.9489 7.62876C21.0639 7.62876 21.1572 7.72203 21.1572 7.8371L20.1572 7.83709ZM20.1572 5.24141L20.1572 7.83709L21.1572 7.8371L21.1572 5.24141L20.1572 5.24141ZM18.0615 5.74141L20.6572 5.74141L20.6572 4.74141L18.0615 4.74141L18.0615 5.74141ZM17.2699 4.94974C17.2699 5.38697 17.6243 5.74141 18.0615 5.74141L18.0615 4.74141C18.1766 4.74141 18.2699 4.83468 18.2699 4.94974L17.2699 4.94974ZM18.0615 4.15808C17.6243 4.15808 17.2699 4.51252 17.2699 4.94974L18.2699 4.94974C18.2699 5.06481 18.1766 5.15808 18.0615 5.15808L18.0615 4.15808ZM20.6572 4.15807L18.0615 4.15808L18.0615 5.15808L20.6572 5.15807L20.6572 4.15807ZM20.1572 2.06239V4.65807H21.1572V2.06239H20.1572ZM20.9489 1.27072C20.5117 1.27072 20.1572 1.62517 20.1572 2.06239L21.1572 2.06239C21.1572 2.17745 21.0639 2.27072 20.9489 2.27072L20.9489 1.27072Z" fill="#1c1f24"/>
</svg>
