<svg width="24" height="24" viewBox="0 0 24 24" fill="none" xmlns="http://www.w3.org/2000/svg">
<path d="M10 9.88235C10 10.6608 10.8972 11.2941 12 11.2941C14.2056 11.2941 16 12.5608 16 14.1176C16 15.4309 14.7233 16.5376 13 16.8518V17.2941C13 17.6839 12.5522 18 12 18C11.4478 18 11 17.6839 11 17.2941V16.8518C9.27675 16.5376 8 15.4309 8 14.1176C8 13.7278 8.44775 13.4118 9 13.4118C9.55225 13.4118 10 13.7278 10 14.1176C10 14.8961 10.8972 15.5294 12 15.5294C13.1028 15.5294 14 14.8961 14 14.1176C14 13.3392 13.1028 12.7059 12 12.7059C9.79437 12.7059 8 11.4393 8 9.88235C8 8.5691 9.27675 7.46241 11 7.14816V6.70588C11 6.31606 11.4478 6 12 6C12.5522 6 13 6.31606 13 6.70588V7.14816C14.7233 7.46241 16 8.5691 16 9.88235C16 10.2722 15.5522 10.5882 15 10.5882C14.4478 10.5882 14 10.2722 14 9.88235C14 9.1039 13.1028 8.47059 12 8.47059C10.8972 8.47059 10 9.1039 10 9.88235Z" fill="white"/>
<path fill-rule="evenodd" clip-rule="evenodd" d="M24 12C24 18.6274 18.6274 24 12 24C5.37258 24 0 18.6274 0 12C0 5.37258 5.37258 0 12 0C18.6274 0 24 5.37258 24 12ZM22.5 12C22.5 17.799 17.799 22.5 12 22.5C6.20101 22.5 1.5 17.799 1.5 12C1.5 6.20101 6.20101 1.5 12 1.5C17.799 1.5 22.5 6.20101 22.5 12Z" fill="white"/>
</svg>
