<svg width="24" height="24" viewBox="0 0 24 24" fill="none" xmlns="http://www.w3.org/2000/svg">
<path fill-rule="evenodd" clip-rule="evenodd" d="M12.7842 4.17262C12.2708 4.0336 11.7296 4.0336 11.2162 4.17262C10.6816 4.31736 10.1632 4.69653 8.68492 5.84632L6.08492 7.86855C5.13347 8.60856 4.81404 8.86801 4.58824 9.17331C4.37124 9.46669 4.2096 9.7972 4.11124 10.1486C4.00888 10.5143 4.0002 10.9257 4.0002 12.131V18.7509C4.0002 19.5214 4.01105 19.685 4.04326 19.7912C4.14021 20.1108 4.39031 20.3609 4.70991 20.4579C4.81608 20.4901 4.97966 20.5009 5.7502 20.5009H6.3752C6.50314 20.5009 6.53093 20.5006 6.54926 20.4997C7.06297 20.4745 7.47375 20.0637 7.49899 19.55C7.49989 19.5316 7.5002 19.5039 7.5002 19.3759V16.5009C7.5002 14.0156 9.51491 12.0009 12.0002 12.0009C14.4855 12.0009 16.5002 14.0156 16.5002 16.5009V19.3759C16.5002 19.5039 16.5005 19.5316 16.5014 19.55C16.5266 20.0637 16.9374 20.4745 17.4511 20.4997C17.4695 20.5006 17.4973 20.5009 17.6252 20.5009H18.2502C19.0207 20.5009 19.1843 20.4901 19.2905 20.4579C19.6101 20.3609 19.8602 20.1108 19.9571 19.7912C19.9893 19.685 20.0002 19.5214 20.0002 18.7509V12.131C20.0002 10.9257 19.9915 10.5143 19.8892 10.1486C19.7908 9.7972 19.6291 9.46669 19.4122 9.17331C19.1864 8.86801 18.8669 8.60856 17.9155 7.86855L15.3155 5.84633C13.8372 4.69654 13.3188 4.31736 12.7842 4.17262ZM10.6935 2.24213C11.5492 2.01043 12.4512 2.01043 13.3069 2.24213C14.2802 2.50566 15.1342 3.17055 16.3732 4.13518C16.4291 4.17872 16.4858 4.22287 16.5434 4.26762L19.1434 6.28984C19.1793 6.3178 19.2148 6.34536 19.2498 6.37255C20.0541 6.99771 20.6105 7.43019 21.0201 7.98401C21.3818 8.47298 21.6512 9.02383 21.8151 9.6095C22.0008 10.2728 22.0006 10.9776 22.0002 11.9963C22.0002 12.0406 22.0002 12.0855 22.0002 12.131V18.7509C22.0002 18.7933 22.0002 18.8352 22.0003 18.8767C22.001 19.448 22.0016 19.9414 21.871 20.3718C21.5802 21.3306 20.8299 22.0809 19.871 22.3717C19.4407 22.5023 18.9473 22.5017 18.376 22.501C18.3345 22.501 18.2926 22.5009 18.2502 22.5009L17.6042 22.5009C17.5091 22.5009 17.4273 22.501 17.353 22.4973C15.8119 22.4216 14.5795 21.1892 14.5038 19.6481C14.5002 19.5738 14.5002 19.492 14.5002 19.3969L14.5002 16.5009C14.5002 15.1202 13.3809 14.0009 12.0002 14.0009C10.6195 14.0009 9.5002 15.1202 9.5002 16.5009L9.5002 19.3969C9.50022 19.492 9.50023 19.5738 9.49658 19.6481C9.42087 21.1892 8.18851 22.4216 6.6474 22.4973C6.57306 22.501 6.4913 22.5009 6.39614 22.5009L5.7502 22.5009C5.70784 22.5009 5.6659 22.501 5.62437 22.501C5.0531 22.5017 4.55969 22.5023 4.12934 22.3717C3.17054 22.0809 2.42022 21.3306 2.12937 20.3718C1.99883 19.9414 1.99942 19.448 2.0001 18.8767C2.00015 18.8352 2.0002 18.7933 2.0002 18.7509V12.131C2.0002 12.0855 2.00018 12.0406 2.00017 11.9963C1.99982 10.9776 1.99959 10.2728 2.18526 9.6095C2.3492 9.02383 2.61861 8.47298 2.98026 7.98401C3.38988 7.43019 3.94631 6.99771 4.75065 6.37255C4.78564 6.34535 4.8211 6.31779 4.85703 6.28984L7.45704 4.26762C7.51458 4.22287 7.57128 4.17872 7.62721 4.13518C8.86619 3.17055 9.72017 2.50566 10.6935 2.24213Z" fill="white"/>
</svg>
