<svg width="24" height="24" viewBox="0 0 24 24" fill="none" xmlns="http://www.w3.org/2000/svg">
<g clip-path="url(#clip0_120234_2825)">
<path d="M8.30969 4.62305H4.11328C3.72491 4.62305 3.41016 4.93781 3.41016 5.32617C3.41016 5.71454 3.72491 6.0293 4.11328 6.0293H8.30969C8.69788 6.0293 9.01282 5.71454 9.01282 5.32617C9.01282 4.93781 8.69788 4.62305 8.30969 4.62305Z" fill="white"/>
<path d="M8.30969 7.43555H4.11328C3.72491 7.43555 3.41016 7.75031 3.41016 8.13867C3.41016 8.52704 3.72491 8.8418 4.11328 8.8418H8.30969C8.69788 8.8418 9.01282 8.52704 9.01282 8.13867C9.01282 7.75031 8.69788 7.43555 8.30969 7.43555Z" fill="white"/>
<path d="M8.30969 10.248H4.11328C3.72491 10.248 3.41016 10.5628 3.41016 10.9512C3.41016 11.3395 3.72491 11.6543 4.11328 11.6543H8.30969C8.69788 11.6543 9.01282 11.3395 9.01282 10.9512C9.01282 10.5628 8.69788 10.248 8.30969 10.248Z" fill="white"/>
<path d="M8.30969 13.0625H4.11328C3.72491 13.0625 3.41016 13.3773 3.41016 13.7656C3.41016 14.154 3.72491 14.4688 4.11328 14.4688H8.30969C8.69788 14.4688 9.01282 14.154 9.01282 13.7656C9.01282 13.3773 8.69788 13.0625 8.30969 13.0625Z" fill="white"/>
<path d="M8.30969 15.9219H4.11328C3.72491 15.9219 3.41016 16.2368 3.41016 16.625C3.41016 17.0134 3.72491 17.3281 4.11328 17.3281H8.30969C8.69788 17.3281 9.01282 17.0134 9.01282 16.625C9.01282 16.2368 8.69788 15.9219 8.30969 15.9219Z" fill="white"/>
<path d="M10.6719 6.0293H14.8683C15.2567 6.0293 15.5714 5.71454 15.5714 5.32617C15.5714 4.93781 15.2567 4.62305 14.8683 4.62305H10.6719C10.2837 4.62305 9.96875 4.93781 9.96875 5.32617C9.96875 5.71454 10.2837 6.0293 10.6719 6.0293Z" fill="white"/>
<path d="M10.6719 8.8418H14.8683C15.2567 8.8418 15.5714 8.52704 15.5714 8.13867C15.5714 7.75031 15.2567 7.43555 14.8683 7.43555H10.6719C10.2837 7.43555 9.96875 7.75031 9.96875 8.13867C9.96875 8.52704 10.2837 8.8418 10.6719 8.8418Z" fill="white"/>
<path d="M13.3961 10.9512C13.3961 10.5628 13.0814 10.248 12.693 10.248H10.6719C10.2837 10.248 9.96875 10.5628 9.96875 10.9512C9.96875 11.3395 10.2837 11.6543 10.6719 11.6543H12.693C13.0814 11.6543 13.3961 11.3395 13.3961 10.9512Z" fill="white"/>
<path d="M20.0557 16.2192C19.7529 15.9762 19.3105 16.0247 19.0673 16.3276L17.2564 18.5852L16.1352 17.773C15.8209 17.545 15.381 17.6153 15.1533 17.9297C14.9255 18.2443 14.9958 18.6839 15.3102 18.9117L16.9733 20.1167C17.0978 20.2068 17.2421 20.2506 17.3855 20.2506C17.5918 20.2506 17.7958 20.16 17.9343 19.9873L20.1643 17.2076C20.4073 16.9047 20.3588 16.4621 20.0557 16.2192Z" fill="white"/>
<path d="M21.8337 14.0598C20.9178 13.1277 19.741 12.5403 18.4658 12.3673V2.83173C18.4658 1.27039 17.1954 0 15.6341 0H3.34753C1.78601 0 0.515625 1.27039 0.515625 2.83173V19.1195C0.515625 20.681 1.78601 21.9514 3.34735 21.9514H13.2294C14.3414 23.2577 15.9402 24 17.67 24C20.89 24 23.5095 21.3787 23.5095 18.1566C23.5095 16.6141 22.9144 15.1591 21.8337 14.0598ZM1.92188 19.1195V2.83173C1.92188 2.04584 2.56146 1.40625 3.34753 1.40625H15.6341C16.4202 1.40625 17.0596 2.04584 17.0596 2.83173V12.345C14.1255 12.6513 11.8306 15.1406 11.8306 18.1566C11.8306 18.9924 12.0049 19.8007 12.3393 20.545H3.34753C2.56146 20.545 1.92188 19.9056 1.92188 19.1195ZM17.67 22.5938C16.2658 22.5938 14.9749 21.949 14.1281 20.8251C13.545 20.0511 13.2367 19.1285 13.2367 18.1566C13.2367 15.7099 15.2256 13.7194 17.67 13.7194C17.6931 13.7194 17.7164 13.7197 17.7394 13.7201L17.7502 13.7203C18.9172 13.741 20.0112 14.2115 20.8308 15.0454C21.6513 15.8802 22.1032 16.9852 22.1032 18.1566C22.1032 20.6032 20.1145 22.5938 17.67 22.5938Z" fill="white"/>
</g>
<defs>
<clipPath id="clip0_120234_2825">
<rect width="24" height="24" fill="white"/>
</clipPath>
</defs>
</svg>
