<svg xmlns="http://www.w3.org/2000/svg" width="26" height="26" fill="none"><path fill="url(#a)" d="M13 26a13 13 0 1 1 0-26 13 13 0 0 1 0 26Zm0-24a11 11 0 1 0 0 22 11 11 0 0 0 0-22Z"/><path fill="url(#b)" d="M13 20a1 1 0 0 1-1-1V7a1 1 0 0 1 2 0v12a1 1 0 0 1-1 1Z"/><path fill="url(#c)" d="M19 14H7a1 1 0 0 1 0-2h12a1 1 0 0 1 0 2Z"/><defs><linearGradient id="a" x1="0" x2="26" y1="13" y2="13" gradientUnits="userSpaceOnUse"><stop stop-color="#3068D0"/><stop offset=".5" stop-color="#836BAF"/><stop offset="1" stop-color="#978262"/></linearGradient><linearGradient id="b" x1="12" x2="14" y1="13" y2="13" gradientUnits="userSpaceOnUse"><stop stop-color="#3068D0"/><stop offset=".5" stop-color="#836BAF"/><stop offset="1" stop-color="#978262"/></linearGradient><linearGradient id="c" x1="6" x2="20" y1="13" y2="13" gradientUnits="userSpaceOnUse"><stop stop-color="#3068D0"/><stop offset=".5" stop-color="#836BAF"/><stop offset="1" stop-color="#978262"/></linearGradient></defs></svg>