<svg width="26" height="33" fill="none" xmlns="http://www.w3.org/2000/svg"><path d="M10.611 22.088c.02.19.061.376.125.555.07.174.178.33.316.457.211.196.451.359.712.482.234.11.481.19.736.238v-3.811c-.578.087-1.03.299-1.346.63a1.863 1.863 0 0 0-.543 1.449Z" fill="url(#a)"/><path d="M15.097 28.327c.102-.13.18-.276.231-.433.043-.112.07-.23.077-.35v-.008c.016-.688-.117-1.183-.405-1.519-.215-.244-.531-.433-.958-.567v3.459a1.82 1.82 0 0 0 1.052-.582h.003Z" fill="url(#b)"/><path d="M18.274 11.304c2.134-1.653 5.003-4.579 3.82-7.733C21.311 1.481 19.301.348 17.1.744c-1.57.285-3.314 1.432-4.32 3.727C11.771 2.176 10.03 1.03 8.464.744 6.257.347 4.25 1.48 3.467 3.57c-1.187 3.154 1.682 6.08 3.816 7.733H.326v3.722h24.905v-3.722h-6.957Zm-.872-8.89c1.388-.254 2.61.435 3.105 1.753 1.05 2.802-3.336 6.043-5.118 7.057a.703.703 0 0 0-.093.077h-1.655V8.794c.07-4.202 2.05-6.07 3.761-6.38Zm-7.235 8.809c-.063-.036-6.364-3.728-5.116-7.056.494-1.318 1.712-2.004 3.106-1.753 1.725.312 3.732 2.207 3.768 6.492v2.398H10.26a.782.782 0 0 0-.093-.081Z" fill="url(#c)"/><path d="M2.754 32.077h20.051V16.723H2.754v15.354Zm6.155-5.212c.077-.087.224-.23.55-.208.373.01.653.244.694.594.107.438.376.833.813 1.163.365.276.88.452 1.535.524v-3.745c-.863-.1-1.632-.403-2.218-.892a3.224 3.224 0 0 1-1.1-2.134c-.045-.466.02-.936.19-1.372.169-.42.426-.798.754-1.11.35-.331.765-.586 1.219-.748a4.818 4.818 0 0 1 1.156-.27v-.489a.761.761 0 0 1 .231-.568.778.778 0 0 1 1.312.568v.574c.652.125 1.253.44 1.727.905.562.553.86 1.297.882 2.211-.087.463-.327.707-.65.746-.325.04-.668-.143-.721-.612a2.947 2.947 0 0 0-.136-.658 1.752 1.752 0 0 0-.313-.563 2.628 2.628 0 0 0-.55-.499 1.51 1.51 0 0 0-.24-.13v3.9c.455.094.89.266 1.286.508.375.226.697.529.947.888.215.33.363.701.432 1.09.068.345.087.697.056 1.047-.044.628-.314 1.226-.804 1.767-.433.479-1.078.782-1.917.905v.458a.725.725 0 0 1-.284.602.839.839 0 0 1-.502.174.784.784 0 0 1-.502-.184.735.735 0 0 1-.254-.592v-.437c-.872-.081-1.638-.326-2.282-.731-.77-.495-1.251-1.215-1.424-2.143a.597.597 0 0 1 .113-.539Z" fill="url(#d)"/><defs><linearGradient id="a" x1="10.606" y1="21.914" x2="12.5" y2="21.914" gradientUnits="userSpaceOnUse"><stop stop-color="#3068D0"/><stop offset=".5" stop-color="#836BAF"/><stop offset="1" stop-color="#978262"/></linearGradient><linearGradient id="b" x1="14.042" y1="27.179" x2="15.406" y2="27.179" gradientUnits="userSpaceOnUse"><stop stop-color="#3068D0"/><stop offset=".5" stop-color="#836BAF"/><stop offset="1" stop-color="#978262"/></linearGradient><linearGradient id="c" x1=".326" y1="7.846" x2="25.231" y2="7.846" gradientUnits="userSpaceOnUse"><stop stop-color="#3068D0"/><stop offset=".5" stop-color="#836BAF"/><stop offset="1" stop-color="#978262"/></linearGradient><linearGradient id="d" x1="2.754" y1="24.4" x2="22.805" y2="24.4" gradientUnits="userSpaceOnUse"><stop stop-color="#3068D0"/><stop offset=".5" stop-color="#836BAF"/><stop offset="1" stop-color="#978262"/></linearGradient></defs></svg>