<svg width="29" height="29" fill="none" xmlns="http://www.w3.org/2000/svg"><path d="M23.384 2.079H5.532a.85.85 0 0 0 0 1.7h17.852c1.19 0 2.159.97 2.159 2.159v8.883h-6.795a.85.85 0 0 0 0 1.7h6.795v.388a2.161 2.161 0 0 1-2.16 2.16H5.618c-1.19 0-2.16-.968-2.16-2.16v-.388h6.796a.85.85 0 0 0 0-1.7H3.458V5.854a.85.85 0 0 0-1.7 0v11.055a3.863 3.863 0 0 0 3.859 3.86h8.034v4.452H6.2a.85.85 0 0 0 0 1.7h16.796a.85.85 0 0 0 0-1.7H15.35v-4.453h8.035a3.863 3.863 0 0 0 3.858-3.859V5.938a3.865 3.865 0 0 0-3.858-3.86ZM14.5 13.972a.934.934 0 0 1-.933-.933.85.85 0 0 0-1.699 0c0 1.153.75 2.123 1.783 2.479V16a.85.85 0 0 0 1.698 0v-.483a2.625 2.625 0 0 0 1.783-2.48 2.634 2.634 0 0 0-2.632-2.632.934.934 0 0 1 0-1.865c.515 0 .932.418.932.933a.85.85 0 0 0 1.7 0 2.628 2.628 0 0 0-1.783-2.48v-.48a.848.848 0 1 0-1.698 0v.48a2.629 2.629 0 0 0-1.783 2.48c0 1.453 1.18 2.63 2.632 2.63a.934.934 0 0 1 0 1.868Z" fill="#fff"/></svg>