<svg width="16" height="16" fill="none" xmlns="http://www.w3.org/2000/svg"><path d="M12.607 16.006H3.373A3.375 3.375 0 0 1 .104 11.8l1.872-7.64a.616.616 0 0 1 .615-.468h10.312a.616.616 0 0 1 .616.43l2.327 7.487a3.38 3.38 0 0 1-.511 3.023 3.332 3.332 0 0 1-2.728 1.373ZM3.053 4.924l-1.78 7.172a2.154 2.154 0 0 0 2.075 2.678h9.235A2.118 2.118 0 0 0 14.3 13.9a2.155 2.155 0 0 0 .327-1.927L12.46 4.924H3.053Z" fill="#fff"/><path d="M10.44 8.618a.615.615 0 0 1-.615-.616V3.077a1.847 1.847 0 0 0-3.694 0v4.925a.616.616 0 0 1-1.231 0V3.077a3.078 3.078 0 0 1 6.156 0v4.925a.616.616 0 0 1-.616.616Z" fill="#fff"/></svg>