<svg xmlns="http://www.w3.org/2000/svg" width="25" height="29" fill="none"><path fill="#fff" d="M21.834 19.211H8.741a.915.915 0 0 1-.598-.224 1.044 1.044 0 0 1-.337-.578L5.601 8.066a1.109 1.109 0 0 1 0-.46c.032-.151.095-.292.185-.414a.973.973 0 0 1 .333-.286.901.901 0 0 1 .416-.103H24.04c.144 0 .286.035.416.102.13.067.244.165.334.286a1.11 1.11 0 0 1 .185.874L22.767 18.41a1.044 1.044 0 0 1-.336.577.916.916 0 0 1-.597.225ZM9.504 17.15h11.568l1.766-8.281H7.737l1.766 8.281ZM10.615 28.422a3.486 3.486 0 0 1-2.038-.666 3.903 3.903 0 0 1-1.351-1.773 4.234 4.234 0 0 1-.21-2.282 4.054 4.054 0 0 1 1.005-2.024 3.595 3.595 0 0 1 1.878-1.08 3.426 3.426 0 0 1 2.12.224c.67.3 1.243.805 1.647 1.455.403.65.618 1.414.618 2.195a4.114 4.114 0 0 1-1.076 2.793c-.688.74-1.62 1.157-2.593 1.158Zm0-5.839c-.347 0-.686.11-.974.319a1.866 1.866 0 0 0-.646.847 2.024 2.024 0 0 0-.1 1.092c.068.366.235.703.48.967s.558.444.898.517c.34.073.693.035 1.014-.108.32-.143.594-.385.787-.696.192-.31.295-.676.295-1.05 0-.5-.185-.98-.514-1.334a1.695 1.695 0 0 0-1.24-.554ZM19.96 28.422a3.486 3.486 0 0 1-2.038-.666 3.903 3.903 0 0 1-1.352-1.773 4.235 4.235 0 0 1-.209-2.282 4.054 4.054 0 0 1 1.005-2.024 3.595 3.595 0 0 1 1.878-1.08 3.426 3.426 0 0 1 2.12.224c.67.3 1.243.805 1.646 1.455a4.17 4.17 0 0 1 .619 2.195 4.114 4.114 0 0 1-1.076 2.793c-.688.74-1.62 1.157-2.593 1.158Zm0-5.839c-.347 0-.686.11-.975.319a1.865 1.865 0 0 0-.646.847 2.025 2.025 0 0 0-.1 1.092c.068.366.235.703.48.967.246.264.559.444.899.517.34.073.693.035 1.014-.108.32-.143.594-.385.787-.696.192-.31.295-.676.295-1.05 0-.5-.186-.98-.514-1.334a1.695 1.695 0 0 0-1.24-.554Z"/><path fill="#fff" d="M6.535 8.866a.912.912 0 0 1-.56-.195 1.03 1.03 0 0 1-.349-.51l-1.64-5.31H.956A.924.924 0 0 1 .28 2.55 1.073 1.073 0 0 1 0 1.82c0-.273.1-.535.28-.728A.924.924 0 0 1 .957.79H4.68c.2 0 .396.068.56.194.162.127.284.305.348.51l1.86 6.015a1.107 1.107 0 0 1-.133.928.981.981 0 0 1-.34.315.902.902 0 0 1-.436.114h-.003Z"/></svg>