<svg width="35" height="35" viewBox="0 0 35 35" fill="none" xmlns="http://www.w3.org/2000/svg">
<path d="M35 17.5C35 20.685 34.16 23.66 32.655 26.25C29.645 31.5 23.975 35 17.5 35C11.025 35 5.355 31.5 2.345 26.25C0.84 23.66 0 20.685 0 17.5C0 14.315 0.84 11.305 2.345 8.75C5.355 3.5 11.025 0 17.5 0C23.975 0 29.645 3.5 32.655 8.75C34.16 11.305 35 14.315 35 17.5Z" fill="#E32B25"/>
<path d="M9.34418 10.15L12.8792 10.605L10.3592 13.125L10.9892 16.66L7.80418 15.015L4.68918 16.73L5.24918 13.195L2.65918 10.745L6.19418 10.185L7.69918 6.965L9.34418 10.15Z" fill="#FDDB00"/>
<path d="M16.7987 8.85499L17.3937 8.81999L17.0437 9.30999L17.2537 9.90499L16.6587 9.69499L16.1687 10.08V9.48499L15.6787 9.13499L16.2737 8.92499L16.4487 8.32999L16.7987 8.85499Z" fill="#FDDB00"/>
<path d="M15.2243 5.91499L15.7843 5.70499L15.6093 6.29999L16.0293 6.75499L15.3993 6.78999L15.0843 7.31499L14.8743 6.71999L14.2793 6.57999L14.7343 6.19499L14.6993 5.59999L15.2243 5.91499Z" fill="#FDDB00"/>
<path d="M16.6243 15.365L17.1143 15.75L16.5193 15.89L16.2743 16.45L15.9593 15.925H15.3643L15.7493 15.435L15.5743 14.84L16.1343 15.085L16.6593 14.735L16.6243 15.365Z" fill="#FDDB00"/>
<path d="M17.2888 12.11L17.8488 12.32L17.3588 12.635V13.265L16.8688 12.88L16.2738 13.055L16.4838 12.495L16.1338 12.005H16.7638L17.1138 11.515L17.2888 12.11Z" fill="#FDDB00"/>
</svg>
