<svg width="35" height="35" fill="none" xmlns="http://www.w3.org/2000/svg"><path d="M35 17.5c0 3.185-.84 6.16-2.345 8.75A17.43 17.43 0 0 1 17.5 35a17.43 17.43 0 0 1-15.155-8.75A17.312 17.312 0 0 1 0 17.5c0-3.185.84-6.195 2.345-8.75A17.43 17.43 0 0 1 17.5 0a17.43 17.43 0 0 1 15.155 8.75C34.16 11.305 35 14.315 35 17.5Z" fill="#E32B25"/><path d="m9.344 10.15 3.535.455-2.52 2.52.63 3.535-3.185-1.645L4.69 16.73l.56-3.535-2.59-2.45 3.535-.56L7.7 6.965l1.645 3.185ZM16.799 8.855l.595-.035-.35.49.21.595-.595-.21-.49.385v-.595l-.49-.35.595-.21.175-.595.35.525ZM15.224 5.915l.56-.21-.175.595.42.455-.63.035-.315.525-.21-.595-.595-.14.455-.385L14.7 5.6l.525.315ZM16.624 15.365l.49.385-.595.14-.245.56-.315-.525h-.595l.385-.49-.175-.595.56.245.525-.35-.035.63ZM17.289 12.11l.56.21-.49.315v.63l-.49-.385-.595.175.21-.56-.35-.49h.63l.35-.49.175.595Z" fill="#FDDB00"/></svg>