<svg width="20" height="20" fill="none" xmlns="http://www.w3.org/2000/svg"><path d="M.429 19.571c.285.286.571.429 1 .429.428 0 .714-.143 1-.429L10 12l7.571 7.571c.286.286.715.429 1 .429.286 0 .715-.143 1-.429.572-.571.572-1.428 0-2L12 10l7.571-7.571c.572-.572.572-1.429 0-2-.571-.572-1.428-.572-2 0L10 8 2.429.429c-.572-.572-1.429-.572-2 0-.572.571-.572 1.428 0 2L8 10 .429 17.571c-.572.572-.572 1.429 0 2Z" fill="url(#a)"/><defs><linearGradient id="a" x1="0" y1="10" x2="20" y2="10" gradientUnits="userSpaceOnUse"><stop stop-color="#3068D0"/><stop offset=".5" stop-color="#836BAF"/><stop offset="1" stop-color="#978262"/></linearGradient></defs></svg>