<svg width="15" height="15" viewBox="0 0 15 15" fill="none" xmlns="http://www.w3.org/2000/svg">
<path d="M7.27275 0.00402098L7.29131 0.00341331C9.22832 -0.0561253 11.1813 0.66541 12.5932 1.99765C14.0749 3.39566 14.9403 5.27788 14.9971 7.31819C15.0517 9.27665 14.3227 11.2259 12.975 12.6508C11.6164 14.0873 9.71971 14.94 7.74249 14.9933C7.7342 14.9938 7.72592 14.9944 7.71764 14.9947C7.31805 15.0127 6.90798 14.9832 6.51206 14.9293C5.018 14.7261 3.61525 14.0889 2.49415 13.0758C0.977849 11.7055 0.110888 9.8624 0.008558 7.8215C-0.0892178 5.87164 0.656316 3.90602 1.9635 2.46636C3.34337 0.946621 5.23203 0.103172 7.27275 0.00402098Z" fill="url(#paint0_linear_2003_138)"/>
<path d="M7.28984 1.31143L7.29376 1.31115C8.92964 1.24984 10.4075 1.81845 11.6347 2.88689C11.8174 3.04597 11.984 3.22519 12.1438 3.4069C13.0338 4.41878 13.6041 5.70793 13.6957 7.05787C13.8089 8.7247 13.2824 10.2984 12.1818 11.5553C11.3161 12.5441 10.1464 13.2323 8.86252 13.5147C8.49582 13.5954 8.12838 13.6377 7.7542 13.6621C6.36296 13.6953 5.02891 13.3433 3.88852 12.5293C3.67197 12.3748 3.47066 12.2022 3.27276 12.0247C2.12471 10.995 1.40622 9.4331 1.32582 7.89834C1.23737 6.20954 1.77297 4.62196 2.90844 3.36359C4.04355 2.10561 5.6044 1.39688 7.28984 1.31143Z" fill="url(#paint1_linear_2003_138)"/>
<path d="M7.27332 2.51898L7.30881 2.51688C8.62021 2.44948 9.89601 2.95464 10.8634 3.82943C11.8257 4.69968 12.4219 5.96636 12.4833 7.26186C12.5464 8.59418 12.0921 9.89081 11.193 10.8803C10.2789 11.8863 9.05759 12.4101 7.70999 12.4739C6.40735 12.5172 5.09271 12.0826 4.12596 11.1971C3.16394 10.316 2.56504 9.05163 2.51057 7.74613C2.45676 6.45641 2.89018 5.15114 3.77026 4.19508C4.69024 3.19571 5.90761 2.5759 7.27332 2.51898Z" fill="url(#paint2_linear_2003_138)"/>
<path d="M7.19449 3.62993C7.4009 3.62953 7.60705 3.63091 7.81342 3.63476C7.81037 3.82518 7.81114 4.01584 7.81026 4.20629C8.03215 4.23173 8.24813 4.28235 8.45656 4.36299C9.05708 4.59535 9.41067 5.01672 9.66494 5.59246L8.33597 5.95463C8.32205 5.92115 8.30613 5.88833 8.29036 5.85571C8.19081 5.65003 8.02795 5.49716 7.81057 5.42211C7.80521 5.81264 7.81219 6.20447 7.81482 6.59504C8.34799 6.80209 8.96411 6.94251 9.40673 7.32284C9.75602 7.62296 9.93426 8.04349 9.96642 8.49797C10.0024 9.00653 9.8522 9.51507 9.51579 9.90152C9.08724 10.3938 8.44695 10.6002 7.81519 10.642L7.81657 11.3497C7.62627 11.3458 7.43608 11.3449 7.24574 11.3446L7.2279 11.3411C7.20204 11.2872 7.21986 10.7445 7.22037 10.6406C6.82966 10.6522 6.2969 10.4798 5.96626 10.28C5.40341 9.93979 5.18244 9.50936 5.03174 8.8888L6.42364 8.54712C6.44659 8.65512 6.4736 8.76158 6.51303 8.86487C6.64236 9.20367 6.89028 9.47659 7.22148 9.6258L7.2217 7.89883C6.77341 7.75955 6.25394 7.56281 5.89463 7.25665C5.58865 6.99593 5.40969 6.62769 5.3804 6.22812C5.34567 5.7543 5.4591 5.28635 5.77658 4.92219C6.12828 4.51879 6.66653 4.24824 7.20112 4.21364C7.20151 4.01906 7.19764 3.82448 7.19449 3.62993Z" fill="url(#paint3_linear_2003_138)"/>
<path d="M7.20607 5.41423L7.21113 5.41564C7.22551 5.43666 7.21999 5.46474 7.22019 5.48999L7.23521 5.49218L7.22135 5.49706L7.2233 6.3934C7.10893 6.34671 7.00474 6.28719 6.90423 6.21559C6.83589 6.16119 6.77387 6.09351 6.74055 6.01169C6.7064 5.92784 6.71034 5.84055 6.74909 5.75904C6.8364 5.57544 7.02514 5.48049 7.20607 5.41423Z" fill="url(#paint4_linear_2003_138)"/>
<path d="M7.81398 8.08095C8.03226 8.15312 8.29897 8.24515 8.46363 8.41196C8.56479 8.51443 8.61208 8.63575 8.61114 8.77901C8.60957 9.01759 8.49613 9.21664 8.33025 9.38101C8.16644 9.51588 8.01654 9.58459 7.81262 9.64185C7.81792 9.12162 7.80805 8.60113 7.81398 8.08095Z" fill="url(#paint5_linear_2003_138)"/>
<defs>
<linearGradient id="paint0_linear_2003_138" x1="0" y1="7.5" x2="15" y2="7.5" gradientUnits="userSpaceOnUse">
<stop stop-color="#3068D0"/>
<stop offset="0.5" stop-color="#836BAF"/>
<stop offset="1" stop-color="#978262"/>
</linearGradient>
<linearGradient id="paint1_linear_2003_138" x1="0.509915" y1="-0.0077754" x2="15" y2="-0.00777568" gradientUnits="userSpaceOnUse">
<stop stop-color="#282D67"/>
<stop offset="0.508609" stop-color="#534954"/>
<stop offset="1" stop-color="#413160"/>
</linearGradient>
<linearGradient id="paint2_linear_2003_138" x1="0" y1="7.5" x2="15" y2="7.5" gradientUnits="userSpaceOnUse">
<stop stop-color="#3068D0"/>
<stop offset="0.5" stop-color="#836BAF"/>
<stop offset="1" stop-color="#978262"/>
</linearGradient>
<linearGradient id="paint3_linear_2003_138" x1="0.509915" y1="-0.0077754" x2="15" y2="-0.00777568" gradientUnits="userSpaceOnUse">
<stop stop-color="#282D67"/>
<stop offset="0.508609" stop-color="#534954"/>
<stop offset="1" stop-color="#413160"/>
</linearGradient>
<linearGradient id="paint4_linear_2003_138" x1="0" y1="7.5" x2="15" y2="7.5" gradientUnits="userSpaceOnUse">
<stop stop-color="#3068D0"/>
<stop offset="0.5" stop-color="#836BAF"/>
<stop offset="1" stop-color="#978262"/>
</linearGradient>
<linearGradient id="paint5_linear_2003_138" x1="0" y1="7.5" x2="15" y2="7.5" gradientUnits="userSpaceOnUse">
<stop stop-color="#3068D0"/>
<stop offset="0.5" stop-color="#836BAF"/>
<stop offset="1" stop-color="#978262"/>
</linearGradient>
</defs>
</svg>
