<svg width="17" height="17" viewBox="0 0 17 17" fill="none" xmlns="http://www.w3.org/2000/svg">
<path d="M8.51784 0.150787C8.51955 0.150666 8.52127 0.150497 8.52299 0.150424C10.6709 0.0699641 12.6113 0.816219 14.2226 2.21846C14.4625 2.42723 14.6812 2.66245 14.891 2.90093C16.0595 4.22894 16.8083 5.92085 16.9286 7.69254C17.0772 9.88012 16.386 11.9454 14.941 13.5951C13.8042 14.8928 12.2684 15.796 10.5828 16.1666C10.1013 16.2725 9.61883 16.3281 9.12754 16.3601C7.30086 16.4037 5.54928 15.9417 4.05196 14.8734C3.76763 14.6706 3.50331 14.4441 3.24346 14.2112C1.73609 12.8598 0.792733 10.8098 0.687161 8.79559C0.571027 6.57918 1.27426 4.4956 2.76513 2.84408C4.25551 1.19309 6.30489 0.262933 8.51784 0.150787Z" fill="white"/>
<path d="M8.39289 3.19369C8.6639 3.19316 8.93457 3.19497 9.20554 3.20003C9.20152 3.44994 9.20254 3.70016 9.20138 3.95012C9.49272 3.9835 9.7763 4.04994 10.05 4.15578C10.8384 4.46073 11.3027 5.01375 11.6365 5.76936L9.89163 6.24467C9.87336 6.20073 9.85246 6.15766 9.83174 6.11486C9.70103 5.84491 9.48721 5.64428 9.20179 5.54579C9.19476 6.05833 9.20392 6.57258 9.20737 7.08516C9.90742 7.3569 10.7164 7.54119 11.2975 8.04034C11.7561 8.43423 11.9902 8.98614 12.0324 9.58261C12.0796 10.2501 11.8824 10.9175 11.4407 11.4247C10.878 12.0708 10.0374 12.3417 9.20786 12.3965L9.20967 13.3253C8.95981 13.3201 8.71009 13.319 8.46018 13.3186L8.43676 13.314C8.4028 13.2433 8.42619 12.531 8.42687 12.3947C7.91387 12.4098 7.21436 12.1836 6.78023 11.9213C6.04123 11.4749 5.7511 10.91 5.55322 10.0955L7.38077 9.64712C7.41091 9.78885 7.44637 9.92858 7.49814 10.0641C7.66795 10.5088 7.99346 10.867 8.42832 11.0628L8.42861 8.79629C7.84001 8.61349 7.15795 8.35529 6.68619 7.95348C6.28444 7.61131 6.04947 7.12802 6.01102 6.60361C5.96541 5.98176 6.11434 5.36761 6.53119 4.88969C6.99297 4.36025 7.69968 4.00518 8.40159 3.95977C8.4021 3.70439 8.39702 3.44902 8.39289 3.19369Z" fill="url(#paint0_linear_104_1999)"/>
<path d="M8.40788 5.5354L8.41453 5.53726C8.4334 5.56484 8.42615 5.6017 8.42642 5.63483L8.44614 5.63771L8.42794 5.64411L8.4305 6.82049C8.28034 6.75922 8.14354 6.6811 8.01157 6.58713C7.92183 6.51574 7.84041 6.42691 7.79666 6.31953C7.75183 6.20949 7.757 6.09492 7.80788 5.98795C7.92251 5.74698 8.17032 5.62236 8.40788 5.5354Z" fill="white"/>
<path d="M9.2062 9.0354C9.4928 9.13012 9.84299 9.2509 10.0592 9.46982C10.192 9.6043 10.2541 9.76353 10.2529 9.95154C10.2508 10.2647 10.1018 10.5259 9.88405 10.7416C9.66897 10.9186 9.47216 11.0088 9.20441 11.084C9.21137 10.4012 9.19841 9.71809 9.2062 9.0354Z" fill="white"/>
<defs>
<linearGradient id="paint0_linear_104_1999" x1="5.55322" y1="8.25945" x2="12.0392" y2="8.25945" gradientUnits="userSpaceOnUse">
<stop stop-color="#3068D0"/>
<stop offset="0.5" stop-color="#836BAF"/>
<stop offset="1" stop-color="#978262"/>
</linearGradient>
</defs>
</svg>
