<svg width="17" height="17" viewBox="0 0 17 17" fill="none" xmlns="http://www.w3.org/2000/svg">
<path fill-rule="evenodd" clip-rule="evenodd" d="M8.52299 0.150424L8.51784 0.150787C6.30489 0.262933 4.25551 1.19309 2.76513 2.84408C1.27426 4.4956 0.571027 6.57918 0.687161 8.79559C0.792733 10.8098 1.73609 12.8598 3.24346 14.2112C3.50331 14.4441 3.76763 14.6706 4.05196 14.8734C5.54928 15.9417 7.30086 16.4037 9.12754 16.3601C9.61883 16.3281 10.1013 16.2725 10.5828 16.1666C12.2684 15.796 13.8042 14.8928 14.941 13.5951C16.386 11.9454 17.0772 9.88012 16.9286 7.69254C16.8083 5.92085 16.0595 4.22894 14.891 2.90093C14.6812 2.66245 14.4625 2.42723 14.2226 2.21846C12.6113 0.816219 10.6709 0.0699641 8.52299 0.150424ZM9.20554 3.20003C8.93457 3.19497 8.6639 3.19316 8.39289 3.19369C8.39349 3.23055 8.3941 3.26741 8.39472 3.30426C8.39837 3.52274 8.40202 3.74126 8.40159 3.95977C7.69968 4.00518 6.99297 4.36025 6.53119 4.88969C6.11434 5.36761 5.96541 5.98176 6.01102 6.60361C6.04947 7.12802 6.28444 7.61131 6.68619 7.95348C7.15795 8.35529 7.84001 8.61349 8.42861 8.79629L8.42832 11.0628C7.99346 10.867 7.66795 10.5088 7.49814 10.0641C7.44637 9.92858 7.41091 9.78885 7.38077 9.64712L5.55322 10.0955C5.7511 10.91 6.04123 11.4749 6.78023 11.9213C7.21436 12.1836 7.91387 12.4098 8.42687 12.3947C8.42674 12.4215 8.42572 12.4708 8.42443 12.5331C8.4192 12.7869 8.40949 13.2572 8.43676 13.314L8.46018 13.3186C8.71009 13.319 8.95981 13.3201 9.20967 13.3253L9.20786 12.3965C10.0374 12.3417 10.878 12.0708 11.4407 11.4247C11.8824 10.9175 12.0796 10.2501 12.0324 9.58261C11.9902 8.98614 11.7561 8.43423 11.2975 8.04034C10.8565 7.66156 10.2843 7.46409 9.72807 7.27213C9.55132 7.21113 9.37618 7.15069 9.20737 7.08516C9.20647 6.95185 9.20519 6.81842 9.2039 6.68494C9.20025 6.3052 9.19659 5.92502 9.20179 5.54579C9.48721 5.64428 9.70103 5.84491 9.83174 6.11486L9.83306 6.11757C9.85334 6.15948 9.87375 6.20166 9.89163 6.24467L11.6365 5.76936C11.3027 5.01375 10.8384 4.46073 10.05 4.15578C9.7763 4.04994 9.49272 3.9835 9.20138 3.95012C9.20173 3.87464 9.20188 3.79914 9.20203 3.72362C9.20238 3.54907 9.20274 3.37447 9.20554 3.20003Z" fill="white"/>
<path d="M8.40788 5.5354L8.41453 5.53726C8.4334 5.56484 8.42615 5.6017 8.42642 5.63483L8.44614 5.63771L8.42794 5.64411L8.4305 6.82049C8.28034 6.75922 8.14354 6.6811 8.01157 6.58713C7.92183 6.51574 7.84041 6.42691 7.79666 6.31953C7.75183 6.20949 7.757 6.09492 7.80788 5.98795C7.92251 5.74698 8.17032 5.62236 8.40788 5.5354Z" fill="white"/>
<path d="M9.2062 9.0354C9.4928 9.13012 9.84299 9.2509 10.0592 9.46982C10.192 9.6043 10.2541 9.76353 10.2529 9.95154C10.2508 10.2647 10.1018 10.5259 9.88405 10.7416C9.66897 10.9186 9.47216 11.0088 9.20441 11.084C9.21137 10.4012 9.19841 9.71809 9.2062 9.0354Z" fill="white"/>
</svg>
