<svg width="23" height="18" fill="none" xmlns="http://www.w3.org/2000/svg"><path d="M8.162 10.382h.126c.22.22.408.437.625.624.314.282.469.657.469 1.064v.062c0 .282-.094.563-.25.812l-2.377 3.378a.973.973 0 0 0-.062.97c.159.314.47.502.845.502h7.505a.986.986 0 0 0 .845-.502.98.98 0 0 0-.062-.97l-2.378-3.378c-.155-.249-.249-.53-.249-.812v-.062c0-.407.156-.782.47-1.064.22-.187.436-.407.624-.624h.155c4.814-.78 8.098-3.346 8.098-6.316A3.43 3.43 0 0 0 19.107.627c-.343 0-.657.062-.97.156-.094-.437-.47-.783-.939-.783H5.315a.91.91 0 0 0-.905.783 3.312 3.312 0 0 0-.97-.156A3.43 3.43 0 0 0 0 4.067c0 2.97 3.284 5.535 8.162 6.315Zm5.034 5.567H9.317l1.346-1.908c.408-.563.595-1.22.595-1.909 0 .69.22 1.346.596 1.909l1.342 1.908ZM17.95 3.002c.281-.343.718-.53 1.158-.53.877 0 1.563.689 1.563 1.562 0 1.627-1.877 3.19-4.691 4.035a15.67 15.67 0 0 0 1.97-5.067Zm-1.75-1.126c-.314 2.753-1.877 5.943-3.88 7.755a3.289 3.289 0 0 0-1.093 2.44 3.3 3.3 0 0 0-1.094-2.44C8.162 7.82 6.598 4.63 6.316 1.876H16.2Zm-12.76.625c.437 0 .844.188 1.126.501.314 1.721 1.032 3.533 1.97 5.099-2.782-.845-4.659-2.407-4.659-4.035 0-.876.719-1.565 1.563-1.565Z" fill="#fff" fill-opacity=".9"/></svg>