<svg width="34" height="34" viewBox="0 0 34 34" fill="none" xmlns="http://www.w3.org/2000/svg">
<path d="M16.75 0.5C7.51342 0.5 0 8.01443 0 17.2506C0 26.4867 7.51342 34 16.75 34C25.9861 34 33.5 26.4867 33.5 17.2506C33.5 8.01443 25.9862 0.5 16.75 0.5ZM16.75 31.3579C8.97065 31.3579 2.64202 25.0294 2.64202 17.2505C2.64202 9.47065 8.97065 3.14202 16.75 3.14202C24.5294 3.14202 30.858 9.47065 30.858 17.2505C30.858 25.0294 24.5294 31.3579 16.75 31.3579Z" fill="url(#paint0_linear_2200_1380)"/>
<path d="M14.1017 13.9673C14.1017 12.9076 15.6516 12.7267 16.996 12.7267C18.2631 12.7267 19.9945 13.3205 21.4422 14.0711L21.7259 11.1503C21.0019 10.7364 19.3224 10.2452 17.6163 10.1425L18.0298 7.16992H15.2642L15.6782 10.1425C12.1116 10.4781 10.9482 12.5456 10.9482 14.2775C10.9482 18.6453 19.089 17.7158 19.089 20.4027C19.089 21.4116 18.1336 21.7726 16.4531 21.7726C14.1791 21.7726 12.4726 20.9722 11.5945 20.1445L11.1547 23.4272C11.9825 23.9185 13.6615 24.3577 15.6782 24.4615L15.2642 27.3304H18.0298L17.6163 24.4351C21.8033 24.073 22.5528 21.85 22.5528 20.3774C22.5528 15.1826 14.1017 16.4742 14.1017 13.9673Z" fill="url(#paint1_linear_2200_1380)"/>
<defs>
<linearGradient id="paint0_linear_2200_1380" x1="0" y1="17.25" x2="33.5" y2="17.25" gradientUnits="userSpaceOnUse">
<stop stop-color="#3068D0"/>
<stop offset="0.5" stop-color="#836BAF"/>
<stop offset="1" stop-color="#978262"/>
</linearGradient>
<linearGradient id="paint1_linear_2200_1380" x1="10.9482" y1="17.2502" x2="22.5528" y2="17.2502" gradientUnits="userSpaceOnUse">
<stop stop-color="#3068D0"/>
<stop offset="0.5" stop-color="#836BAF"/>
<stop offset="1" stop-color="#978262"/>
</linearGradient>
</defs>
</svg>
