<svg width="30" height="30" fill="none" xmlns="http://www.w3.org/2000/svg"><path d="M20.6 7.16c4.33 0 7.84-1.254 7.84-2.8 0-1.546-3.51-2.8-7.84-2.8s-7.84 1.254-7.84 2.8c0 1.546 3.51 2.8 7.84 2.8Z" stroke="#87888D" stroke-width="1.6" stroke-miterlimit="10" stroke-linecap="round" stroke-linejoin="round"/><path d="M12.76 4.92v3.36c0 1.546 3.509 2.8 7.84 2.8 4.33 0 7.84-1.254 7.84-2.8V4.92" stroke="#87888D" stroke-width="1.6" stroke-miterlimit="10" stroke-linecap="round" stroke-linejoin="round"/><path d="M16.988 14.686c1.08.2 2.31.314 3.612.314 4.33 0 7.84-1.254 7.84-2.8V8.84M12.76 8.84v2.391" stroke="#87888D" stroke-width="1.6" stroke-miterlimit="10" stroke-linecap="round" stroke-linejoin="round"/><path d="M17.254 18.653c1.015.171 2.149.267 3.346.267 4.33 0 7.84-1.253 7.84-2.8v-3.36" stroke="#87888D" stroke-width="1.6" stroke-miterlimit="10" stroke-linecap="round" stroke-linejoin="round"/><path d="M17.21 22.566c1.026.175 2.176.274 3.39.274 4.331 0 7.84-1.253 7.84-2.8v-3.36M9.4 16.68c4.33 0 7.84-1.253 7.84-2.8 0-1.546-3.51-2.8-7.84-2.8s-7.84 1.254-7.84 2.8c0 1.546 3.51 2.8 7.84 2.8Z" stroke="#87888D" stroke-width="1.6" stroke-miterlimit="10" stroke-linecap="round" stroke-linejoin="round"/><path d="M1.56 14.44v3.36c0 1.547 3.509 2.8 7.84 2.8 4.331 0 7.84-1.253 7.84-2.8v-3.36" stroke="#87888D" stroke-width="1.6" stroke-miterlimit="10" stroke-linecap="round" stroke-linejoin="round"/><path d="M1.56 18.36v3.36c0 1.547 3.509 2.8 7.84 2.8 4.331 0 7.84-1.253 7.84-2.8v-3.36" stroke="#87888D" stroke-width="1.6" stroke-miterlimit="10" stroke-linecap="round" stroke-linejoin="round"/><path d="M1.56 22.28v3.36c0 1.547 3.509 2.8 7.84 2.8 4.331 0 7.84-1.253 7.84-2.8v-3.36" stroke="#87888D" stroke-width="1.6" stroke-miterlimit="10" stroke-linecap="round" stroke-linejoin="round"/></svg>