<svg width="28" height="28" viewBox="0 0 28 28" fill="none" xmlns="http://www.w3.org/2000/svg">
<g clip-path="url(#clip0_31_52)">
<path d="M19.5998 6.16006C23.9297 6.16006 27.4398 4.90646 27.4398 3.36006C27.4398 1.81366 23.9297 0.560059 19.5998 0.560059C15.2699 0.560059 11.7598 1.81366 11.7598 3.36006C11.7598 4.90646 15.2699 6.16006 19.5998 6.16006Z" stroke="#808081" stroke-width="1.12" stroke-miterlimit="10" stroke-linecap="round" stroke-linejoin="round"/>
<path d="M11.7598 3.92004C11.7598 4.43076 11.7598 6.76932 11.7598 7.28004C11.7598 8.8262 15.2687 10.08 19.5998 10.08C23.9308 10.08 27.4398 8.8262 27.4398 7.28004C27.4398 6.76932 27.4398 4.43076 27.4398 3.92004" stroke="#808081" stroke-width="1.12" stroke-miterlimit="10" stroke-linecap="round" stroke-linejoin="round"/>
<path d="M15.9878 13.6858C17.0686 13.8863 18.2972 14 19.5998 14C23.9308 14 27.4398 12.7461 27.4398 11.2C27.4398 10.6892 27.4398 8.35069 27.4398 7.83997" stroke="#808081" stroke-width="1.12" stroke-miterlimit="10" stroke-linecap="round" stroke-linejoin="round"/>
<path d="M11.7598 7.83997C11.7598 8.35069 11.7598 10.2312 11.7598 10.2312" stroke="#808081" stroke-width="1.12" stroke-miterlimit="10" stroke-linecap="round" stroke-linejoin="round"/>
<path d="M16.2539 17.6529C17.2686 17.8243 18.4026 17.92 19.5999 17.92C23.9309 17.92 27.4399 16.6667 27.4399 15.12C27.4399 14.6093 27.4399 12.2707 27.4399 11.76" stroke="#808081" stroke-width="1.12" stroke-miterlimit="10" stroke-linecap="round" stroke-linejoin="round"/>
<path d="M16.2109 21.5655C17.2363 21.7414 18.386 21.8399 19.6001 21.8399C23.9311 21.8399 27.4401 20.5867 27.4401 19.0399C27.4401 18.5292 27.4401 16.1907 27.4401 15.6799" stroke="#808081" stroke-width="1.12" stroke-miterlimit="10" stroke-linecap="round" stroke-linejoin="round"/>
<path d="M8.40006 15.68C12.73 15.68 16.2401 14.4264 16.2401 12.88C16.2401 11.3336 12.73 10.08 8.40006 10.08C4.07015 10.08 0.560059 11.3336 0.560059 12.88C0.560059 14.4264 4.07015 15.68 8.40006 15.68Z" stroke="#808081" stroke-width="1.12" stroke-miterlimit="10" stroke-linecap="round" stroke-linejoin="round"/>
<path d="M0.560059 13.4399C0.560059 13.9507 0.560059 16.2892 0.560059 16.7999C0.560059 18.3467 4.06902 19.5999 8.40006 19.5999C12.7311 19.5999 16.2401 18.3467 16.2401 16.7999C16.2401 16.2892 16.2401 13.9507 16.2401 13.4399" stroke="#808081" stroke-width="1.12" stroke-miterlimit="10" stroke-linecap="round" stroke-linejoin="round"/>
<path d="M0.560059 17.36C0.560059 17.8707 0.560059 20.2093 0.560059 20.72C0.560059 22.2667 4.06902 23.52 8.40006 23.52C12.7311 23.52 16.2401 22.2667 16.2401 20.72C16.2401 20.2093 16.2401 17.8707 16.2401 17.36" stroke="#808081" stroke-width="1.12" stroke-miterlimit="10" stroke-linecap="round" stroke-linejoin="round"/>
<path d="M0.560059 21.2799C0.560059 21.7906 0.560059 24.1292 0.560059 24.6399C0.560059 26.1866 4.06902 27.4399 8.40006 27.4399C12.7311 27.4399 16.2401 26.1866 16.2401 24.6399C16.2401 24.1292 16.2401 21.7906 16.2401 21.2799" stroke="#808081" stroke-width="1.12" stroke-miterlimit="10" stroke-linecap="round" stroke-linejoin="round"/>
</g>
<defs>
<clipPath id="clip0_31_52">
<rect width="28" height="28" fill="white"/>
</clipPath>
</defs>
</svg>
