<svg width="37" height="37" viewBox="0 0 37 37" fill="none" xmlns="http://www.w3.org/2000/svg">
<path d="M12.1406 21.3906L12.1406 5.78125" stroke="white" stroke-width="1.73438" stroke-linecap="round" stroke-linejoin="round"/>
<path d="M12.1406 31.2188L12.1406 27.1719" stroke="white" stroke-width="1.73438" stroke-linecap="round" stroke-linejoin="round"/>
<path d="M9.25 24.2813C9.25 25.8777 10.5442 27.1719 12.1406 27.1719C13.7371 27.1719 15.0312 25.8777 15.0312 24.2813C15.0312 22.6848 13.7371 21.3906 12.1406 21.3906C10.5442 21.3906 9.25 22.6848 9.25 24.2813Z" stroke="white" stroke-width="1.73438" stroke-linecap="round" stroke-linejoin="round"/>
<path d="M24.8594 12.1406L24.8594 5.78125" stroke="white" stroke-width="1.73438" stroke-linecap="round" stroke-linejoin="round"/>
<path d="M24.8594 31.2188L24.8594 17.9219" stroke="white" stroke-width="1.73438" stroke-linecap="round" stroke-linejoin="round"/>
<path d="M21.9687 15.0313C21.9687 16.6277 23.2629 17.9219 24.8594 17.9219C26.4558 17.9219 27.75 16.6277 27.75 15.0313C27.75 13.4348 26.4558 12.1406 24.8594 12.1406C23.2629 12.1406 21.9687 13.4348 21.9687 15.0313Z" stroke="white" stroke-width="1.73438" stroke-linecap="round" stroke-linejoin="round"/>
</svg>
