<svg xmlns="http://www.w3.org/2000/svg" width="27" height="26" fill="none"><path stroke="#87888D" stroke-linecap="round" stroke-linejoin="round" stroke-width="1.6" d="M20.196 6.357c-.219 2.95-2.455 5.357-4.91 5.357-2.456 0-4.696-2.406-4.911-5.357C10.152 3.287 12.328 1 15.285 1c2.958 0 5.134 2.344 4.911 5.357Z"/><path stroke="#87888D" stroke-miterlimit="10" stroke-width="1.6" d="M15.285 15.285c-4.855 0-9.782 2.679-10.694 7.735-.111.609.235 1.194.874 1.194h19.641c.639 0 .984-.585.874-1.194-.913-5.056-5.84-7.735-10.695-7.735Z"/><path stroke="#87888D" stroke-linecap="round" stroke-linejoin="round" stroke-width="1.6" d="M4.125 8.143v6.25M7.25 11.268H1"/></svg>