<svg xmlns="http://www.w3.org/2000/svg" width="91" height="61" fill="none"><path fill="#413160" d="M40.639 59.183a6.098 6.098 0 0 0 8.492-1.5 2.107 2.107 0 0 0-.52-2.94l-4.884-5.146 11.146 7.801a3.952 3.952 0 0 0 5.515-.974 3.961 3.961 0 0 0-.974-5.514l-9.493-8.725 14.19 9.934a3.954 3.954 0 0 0 6.136-2.389 3.959 3.959 0 0 0-1.596-4.1L56.069 34.877l15.48 10.837a3.953 3.953 0 0 0 6.137-2.388 3.961 3.961 0 0 0-1.596-4.1L9.765 8.662.612 23.238a3.836 3.836 0 0 0 .729 4.992l20.554 17.61c.937.803 1.912 1.561 2.923 2.268l15.82 11.075Z"/><path fill="url(#a)" d="M75.945 36.535 46.109 15.017l-.156-.211.14-.211.14-.14 2.254 1.238c2.53 1.637 8.308 4.055 12.688 4.055 2.996 0 4.791-1.122 5.327-3.319a3.72 3.72 0 0 0-3.041-4.281 17.92 17.92 0 0 1-7.395-2.88l-1.465-.985c-1.647-1.112-3.514-2.371-4.892-3.184-1.716-1.04-3.582-1.544-5.71-1.544-3.157 0-6.364 1.114-9.464 2.19l-3.342 1.152a13.675 13.675 0 0 1-4.477.715c-4.076 0-8.065-1.547-11.922-3.041l-.388-.153a3.667 3.667 0 0 0-4.42 1.478L.835 20.476a3.582 3.582 0 0 0 .678 4.65l20.552 17.613c.93.795 1.906 1.552 2.904 2.25l16.275 11.393a5.282 5.282 0 0 0 7.355-1.296 2.12 2.12 0 0 0-.517-2.944l-4.84-3.387a1.117 1.117 0 0 1 1.281-1.83l10.504 7.353a3.696 3.696 0 0 0 4.24-6.056l-9.831-6.88a1.118 1.118 0 0 1 .493-2.021c.278-.037.558.032.787.192l13.548 9.485a3.697 3.697 0 1 0 4.24-6.056l-12.851-8.994a1.11 1.11 0 0 1-.214-1.632.995.995 0 0 1 1.336-.174l14.931 10.452a3.7 3.7 0 0 0 5.15-.91 3.696 3.696 0 0 0-.91-5.149Z"/><path fill="#413160" d="M40.923 52.842a3.964 3.964 0 0 1-1.026 1.798l-2.651 2.63a3.945 3.945 0 0 1-6.617-1.749 3.96 3.96 0 0 1 1.02-3.838l2.65-2.63a3.945 3.945 0 0 1 3.794-1.045 3.965 3.965 0 0 1 2.83 4.834ZM13.088 39.85l3.968-3.952a3.96 3.96 0 0 0-1.172-6.413 3.947 3.947 0 0 0-4.42.819l-3.967 3.952a3.96 3.96 0 0 0 1.174 6.412 3.949 3.949 0 0 0 4.417-.818Zm13.738.137a3.96 3.96 0 1 0-5.602-5.591L13.3 42.31a3.96 3.96 0 1 0 5.602 5.592l7.925-7.915Zm5.94 7.92a3.959 3.959 0 0 0-2.495-6.745 3.93 3.93 0 0 0-3.096 1.162l-5.293 5.266a3.96 3.96 0 0 0 2.494 6.748c1.201.095 2.308-.372 3.097-1.162l5.293-5.27ZM76.47 36.986l1.655-1.43-18.25-28.643-32.392 5.24a3.98 3.98 0 0 0-3.26 4.585c1.737 7.115 15.848 1.83 22.057-1.586l30.19 21.835Z"/><path fill="url(#b)" d="M40.923 50.202A3.964 3.964 0 0 1 39.897 52l-2.651 2.63a3.945 3.945 0 0 1-6.617-1.749 3.96 3.96 0 0 1 1.02-3.838l2.65-2.63a3.945 3.945 0 0 1 3.794-1.045 3.965 3.965 0 0 1 2.83 4.834ZM13.088 37.211l3.968-3.952a3.96 3.96 0 0 0-1.172-6.412 3.952 3.952 0 0 0-4.42.818l-3.967 3.952a3.96 3.96 0 0 0 1.174 6.412 3.949 3.949 0 0 0 4.417-.818Zm13.738.137a3.96 3.96 0 1 0-5.602-5.591L13.3 39.67a3.959 3.959 0 1 0 5.602 5.592l7.925-7.915Zm5.94 7.92a3.96 3.96 0 0 0-2.495-6.745 3.93 3.93 0 0 0-3.096 1.162l-5.293 5.266a3.96 3.96 0 0 0 2.494 6.748c1.201.095 2.308-.372 3.097-1.162l5.293-5.269Zm56.909-19.683a3.828 3.828 0 0 0 .71-4.977l-.008-.013L81.225 3.38a3.928 3.928 0 0 0-4.737-1.584C71.23 3.832 65.47 6.171 59.878 4.27l-2.899-.995c-5.142-1.782-10.733-3.87-15.84-.776-1.834 1.08-4.587 2.99-6.364 4.17a18.144 18.144 0 0 1-7.291 2.841 3.965 3.965 0 0 0-3.26 4.586c1.617 6.631 13.99 2.397 20.691-.974a2.556 2.556 0 0 1 2.645.213l30.581 22.218 11.534-9.968Z"/><defs><linearGradient id="a" x1=".267" x2="77.522" y1="30.446" y2="30.446" gradientUnits="userSpaceOnUse"><stop stop-color="#88709F"/><stop offset=".5" stop-color="#836BAF"/><stop offset="1" stop-color="#978262"/></linearGradient><linearGradient id="b" x1="6.336" x2="91" y1="28.358" y2="28.358" gradientUnits="userSpaceOnUse"><stop stop-color="#897298"/><stop offset=".5" stop-color="#836BAF"/><stop offset="1" stop-color="#978262"/></linearGradient></defs></svg>