<svg width="27" height="26" viewBox="0 0 27 26" fill="none" xmlns="http://www.w3.org/2000/svg">
<path d="M20.1961 6.35701L21.0865 6.42302L21.0865 6.42296L20.1961 6.35701ZM10.3749 6.35701L9.48441 6.42177L9.48441 6.42184L10.3749 6.35701ZM4.59137 23.0195L5.4696 23.1804L5.47003 23.178L4.59137 23.0195ZM25.9798 23.0195L26.8584 22.861L26.8584 22.861L25.9798 23.0195ZM5.01775 8.14267C5.01775 7.64958 4.61802 7.24984 4.12492 7.24984C3.63182 7.24984 3.23209 7.64958 3.23209 8.14267H5.01775ZM3.23209 14.3925C3.23209 14.8856 3.63182 15.2853 4.12492 15.2853C4.61802 15.2853 5.01775 14.8856 5.01775 14.3925H3.23209ZM7.24984 12.1604C7.74294 12.1604 8.14267 11.7607 8.14267 11.2676C8.14267 10.7745 7.74294 10.3748 7.24984 10.3748V12.1604ZM1 10.3748C0.506901 10.3748 0.107166 10.7745 0.107166 11.2676C0.107166 11.7607 0.506901 12.1604 1 12.1604V10.3748ZM19.3057 6.29099C19.1117 8.90717 17.1515 10.8212 15.2855 10.8212V12.6068C18.33 12.6068 20.8429 9.70736 21.0865 6.42302L19.3057 6.29099ZM15.2855 10.8212C13.4185 10.8212 11.4557 8.90679 11.2654 6.29217L9.48441 6.42184C9.72373 9.70885 12.2418 12.6068 15.2855 12.6068V10.8212ZM11.2654 6.29224C11.0796 3.73764 12.8493 1.89283 15.2855 1.89283V0.107166C11.8066 0.107166 9.22378 2.83813 9.48441 6.42177L11.2654 6.29224ZM15.2855 1.89283C17.716 1.89283 19.4911 3.7875 19.3057 6.29105L21.0865 6.42296C21.3474 2.89988 18.77 0.107166 15.2855 0.107166V1.89283ZM15.2853 14.3925C10.177 14.3925 4.72901 17.226 3.71272 22.8611L5.47003 23.178C6.27735 18.7017 10.684 16.1782 15.2853 16.1782V14.3925ZM3.71315 22.8587C3.62004 23.3671 3.7092 23.9107 4.01043 24.35C4.32515 24.809 4.84366 25.1065 5.46468 25.1065V23.3209C5.44472 23.3209 5.44877 23.3172 5.46374 23.3252C5.47749 23.3325 5.48349 23.3407 5.48314 23.3402C5.48192 23.3384 5.47355 23.3251 5.46804 23.2961C5.46257 23.2674 5.4609 23.2279 5.4696 23.1804L3.71315 22.8587ZM5.46468 25.1065H25.1065V23.3209H5.46468V25.1065ZM25.1065 25.1065C25.7279 25.1065 26.2461 24.8087 26.5604 24.3496C26.861 23.9105 26.9499 23.3679 26.8584 22.861L25.1011 23.178C25.1098 23.2262 25.1081 23.2664 25.1025 23.2956C25.0969 23.3252 25.0883 23.3388 25.0871 23.3407C25.0867 23.3412 25.0928 23.3329 25.1068 23.3254C25.1221 23.3172 25.1264 23.3209 25.1065 23.3209V25.1065ZM26.8584 22.861C25.8415 17.226 20.3936 14.3925 15.2853 14.3925V16.1782C19.8866 16.1782 24.2933 18.7017 25.1011 23.1781L26.8584 22.861ZM3.23209 8.14267V14.3925H5.01775V8.14267H3.23209ZM7.24984 10.3748H1V12.1604H7.24984V10.3748Z" fill="#808081"/>
</svg>
