<svg width="34" height="25" fill="none" xmlns="http://www.w3.org/2000/svg"><path d="M26.257.7c-3.343-.996-4.393.891-9.07.891-4.677 0-5.727-1.895-9.07-.891-3.344.996-5.012 4.524-6.59 11.145-1.58 6.629-1.29 11.415.573 12.306 1.861.892 3.961-1.153 5.965-3.677 1.623-1.978 2.435-2.105 9.122-2.105 6.68 0 7.372.052 9.122 2.105 2.004 2.524 4.104 4.569 5.965 3.677 1.862-.891 2.152-5.677.574-12.306C31.269 5.224 29.593 1.703 26.258.7ZM7.67 12.953c-1.616 0-2.927-1.325-2.927-2.966 0-1.632 1.31-2.966 2.927-2.966 1.616 0 2.927 1.334 2.927 2.966 0 1.633-1.311 2.966-2.927 2.966Zm13.516-1.505c-.79 0-1.437-.652-1.437-1.453s.648-1.453 1.437-1.453a1.45 1.45 0 0 1 1.445 1.453 1.455 1.455 0 0 1-1.445 1.453Zm3.142 3.176c-.789 0-1.437-.652-1.437-1.453 0-.81.648-1.453 1.438-1.453a1.45 1.45 0 0 1 1.444 1.453c0 .809-.648 1.453-1.445 1.453Zm0-6.36c-.789 0-1.437-.65-1.437-1.452 0-.802.648-1.453 1.438-1.453a1.45 1.45 0 0 1 1.444 1.453 1.45 1.45 0 0 1-1.445 1.453Zm3.15 3.184a1.444 1.444 0 0 1-1.437-1.453c0-.801.648-1.453 1.438-1.453.789 0 1.437.652 1.437 1.453s-.64 1.453-1.438 1.453Z" fill="url(#a)"/><defs><linearGradient id="a" x1=".502" y1="12.385" x2="33.871" y2="12.385" gradientUnits="userSpaceOnUse"><stop stop-color="#3068D0"/><stop offset=".5" stop-color="#836BAF"/><stop offset="1" stop-color="#978262"/></linearGradient></defs></svg>