<svg width="42" height="43" fill="none" xmlns="http://www.w3.org/2000/svg"><path d="M20.907 5.476c-1.235-2.18-3.946-5.493-8.804-4.78A4.42 4.42 0 0 0 8.33 5.067v6.65h6.414a6.426 6.426 0 0 1 6.163-6.241Z" fill="url(#a)"/><path d="M16.657 11.717h9.01a4.508 4.508 0 0 0-9.01 0Z" fill="url(#b)"/><path d="M27.58 11.718h6.406v-6.65A4.42 4.42 0 0 0 30.212.696c-4.857-.713-7.569 2.6-8.803 4.78a6.426 6.426 0 0 1 6.171 6.242Z" fill="url(#c)"/><path d="M4.612 39.57a2.837 2.837 0 0 0 2.837 2.837h7.291v-17.04H4.612V39.57Z" fill="url(#d)"/><path d="M39.714 13.63H2.602a2.218 2.218 0 0 0-2.218 2.218v5.55a2.057 2.057 0 0 0 2.053 2.057h37.442a2.057 2.057 0 0 0 2.053-2.057v-5.55a2.218 2.218 0 0 0-2.218-2.218Z" fill="url(#e)"/><path d="M28.268 42.407h6.598a2.836 2.836 0 0 0 2.837-2.837V25.368h-9.435v17.039Z" fill="url(#f)"/><path d="M26.355 25.368h-9.703v17.039h9.703v-17.04Z" fill="url(#g)"/><defs><linearGradient id="a" x1="8.33" y1="6.157" x2="20.907" y2="6.157" gradientUnits="userSpaceOnUse"><stop stop-color="#3068D0"/><stop offset=".5" stop-color="#836BAF"/><stop offset="1" stop-color="#978262"/></linearGradient><linearGradient id="b" x1="16.657" y1="9.547" x2="25.667" y2="9.547" gradientUnits="userSpaceOnUse"><stop stop-color="#3068D0"/><stop offset=".5" stop-color="#836BAF"/><stop offset="1" stop-color="#978262"/></linearGradient><linearGradient id="c" x1="21.409" y1="6.157" x2="33.986" y2="6.157" gradientUnits="userSpaceOnUse"><stop stop-color="#3068D0"/><stop offset=".5" stop-color="#836BAF"/><stop offset="1" stop-color="#978262"/></linearGradient><linearGradient id="d" x1="4.612" y1="33.887" x2="14.74" y2="33.887" gradientUnits="userSpaceOnUse"><stop stop-color="#3068D0"/><stop offset=".5" stop-color="#836BAF"/><stop offset="1" stop-color="#978262"/></linearGradient><linearGradient id="e" x1=".384" y1="18.543" x2="41.932" y2="18.543" gradientUnits="userSpaceOnUse"><stop stop-color="#3068D0"/><stop offset=".5" stop-color="#836BAF"/><stop offset="1" stop-color="#978262"/></linearGradient><linearGradient id="f" x1="28.268" y1="33.887" x2="37.703" y2="33.887" gradientUnits="userSpaceOnUse"><stop stop-color="#3068D0"/><stop offset=".5" stop-color="#836BAF"/><stop offset="1" stop-color="#978262"/></linearGradient><linearGradient id="g" x1="16.652" y1="33.887" x2="26.355" y2="33.887" gradientUnits="userSpaceOnUse"><stop stop-color="#3068D0"/><stop offset=".5" stop-color="#836BAF"/><stop offset="1" stop-color="#978262"/></linearGradient></defs></svg>