<svg width="39" height="39" fill="none" xmlns="http://www.w3.org/2000/svg"><path d="M7.32 6.522a6.016 6.016 0 0 1 12.033 0 6.016 6.016 0 1 1 12.032 0v.015c0 .168 0 .65-.091 1.189h4.904a2.406 2.406 0 0 1 2.406 2.406v2.406a2.406 2.406 0 0 1-2.406 2.407H2.508a2.406 2.406 0 0 1-2.406-2.407v-2.406a2.406 2.406 0 0 1 2.406-2.406h4.904a7.143 7.143 0 0 1-.091-1.19v-.014Zm2.57 1.204h7.056V6.522a3.61 3.61 0 0 0-7.219 0c0 .205.005.66.109 1.035.014.058.032.114.055.169Zm11.87 0h7.055c.022-.055.04-.112.055-.169.104-.375.109-.83.109-1.035a3.61 3.61 0 1 0-7.22 0v1.204Zm14.438 9.625V35.4a3.61 3.61 0 0 1-3.61 3.61H21.76V17.351h14.439ZM6.118 39.01a3.61 3.61 0 0 1-3.61-3.61V17.351h14.439V39.01H6.117Z" fill="url(#a)"/><defs><linearGradient id="a" x1=".102" y1="19.758" x2="38.604" y2="19.758" gradientUnits="userSpaceOnUse"><stop stop-color="#3068D0"/><stop offset=".5" stop-color="#836BAF"/><stop offset="1" stop-color="#978262"/></linearGradient></defs></svg>