<svg xmlns="http://www.w3.org/2000/svg" width="28" height="29" fill="none"><path fill="#87888D" d="M7.302 0v1.986H0V28.12h19.864v-3.003c.221.02.436.062.662.062 4.112 0 7.46-3.348 7.46-7.459s-3.348-7.457-7.46-7.457c-.226 0-.441.037-.662.057V1.986h-7.27V0H7.302Zm1.324 1.324h2.643v1.987h2.636v1.324H5.959V3.311h2.667V1.324ZM1.324 3.311h3.311v2.648h10.594V3.311h3.31v7.247c-2.504.698-4.489 2.653-5.19 5.157H8.784v1.325H13.1a7.407 7.407 0 0 0 1.332 4.966H8.784v1.324h6.843c.828.724 1.827 1.242 2.913 1.547v1.919H1.324V3.31Zm19.202 8.276a6.123 6.123 0 0 1 6.135 6.133 6.126 6.126 0 0 1-6.135 6.135 6.126 6.126 0 0 1-6.135-6.135 6.123 6.123 0 0 1 6.135-6.133Zm-.662 1.987v5.297h5.297v-1.324h-3.973v-3.973h-1.324Z"/><path fill="#87888D" d="M5.297 1.986v1.325h2.959V1.986h-2.96ZM3.31 14.391v3.973h4.15V14.39H3.31Zm1.325 1.324h1.5v1.325h-1.5v-1.325ZM3.31 8.1v3.974h4.15V8.1H3.31Zm1.325 1.325h1.5v1.324h-1.5V9.425ZM3.31 20.681v3.973h4.15v-3.973H3.31Zm1.325 1.325h1.5v1.324h-1.5v-1.324ZM8.784 9.425v1.324h7.945V9.425H8.784Z"/></svg>