<svg width="33" height="33" fill="none" xmlns="http://www.w3.org/2000/svg"><path d="m15.995.575-1.147.063-1.145.143-1.133.227-1.107.308-1.086.389-1.052.465-1.023.54-.972.612-.931.682-.88.744-.822.807-.759.866-.697.916-.63.968-.562 1.005-.48 1.049-.41 1.075-.327 1.103-.246 1.13-.168 1.14-.081 1.148v1.155l.08 1.144.17 1.14.245 1.13.326 1.1.411 1.078.48 1.05.562 1.004.63.968.697.917.76.865.82.807.88.745.932.682.972.612 1.023.539 1.052.462 1.086.392 1.107.305 1.133.23 1.145.144 1.147.062 1.156-.018 1.147-.103 1.133-.19 1.123-.268 1.096-.345 1.07-.429 1.039-.502.997-.576.957-.65.902-.714.851-.774.792-.84.73-.89.664-.94.597-.986.517-1.03.448-1.064.367-1.09.29-1.118.205-1.129.124-1.148.044-1.151-.044-1.152-.124-1.148-.206-1.129-.29-1.119-.366-1.089-.448-1.063-.517-1.03-.597-.987-.664-.939-.73-.895-.792-.836-.85-.777-.903-.711-.957-.65-.997-.575-1.038-.503-1.071-.425-1.096-.348L19.43.887 18.298.7 17.151.594 15.995.575Zm.561 1.878 1.09.062 1.081.15 1.067.228 1.05.315 1.015.393.99.469.943.546.902.62.85.686.793.748.733.81.667.862.602.91.528.957.45.993.375 1.03.297 1.053.209 1.071.125 1.086.044 1.089-.044 1.089-.125 1.085-.209 1.071-.297 1.052-.374 1.027-.451.994-.528.957-.602.913-.667.866-.733.806-.793.749-.85.685-.902.62-.943.546-.99.47-1.016.392-1.049.316-1.067.23-1.081.147-1.09.063-1.089-.019-1.089-.11-1.074-.19-1.056-.272-1.034-.352-1.005-.433-.965-.506-.924-.586-.876-.65-.822-.718-.766-.781-.7-.836-.635-.888-.565-.935-.491-.975-.41-1.012-.334-1.042-.254-1.063-.168-1.078-.085-1.086v-1.093l.085-1.089.168-1.078.254-1.06.333-1.041.41-1.012.492-.976.565-.935.634-.891.7-.832.767-.781.822-.72.876-.652.924-.583.965-.506 1.005-.433 1.034-.352 1.056-.275 1.074-.187 1.09-.11 1.088-.018Zm-.396 3.751-.487.033-.477.074-.47.113-.462.154-.443.19-.426.232-.407.268-.377.297-.356.333-.323.36-.29.388-.26.411-.22.43-.183.45-.143.462-.103.473-.062.48-.022.485h1.877l.022-.396.063-.389.102-.381.143-.367.18-.352.213-.33.253-.308.278-.279.309-.246.33-.212.355-.18.367-.14.381-.098.393-.059.392-.018.393.022.392.066.378.102.37.143.348.184.33.22.305.25.278.282.246.308.21.333.175.356.136.37.099.382.059.389.014.395-.025.393-.07.389-.107.381-.146.367-.184.348-.22.326-2.816 3.755-.257.375-.227.392-.194.41-.158.422-.128.437-.092.444-.055.45-.015.452h1.878l.014-.345.048-.341.077-.338.11-.326.14-.315.168-.305.195-.282 2.816-3.755.271-.403.242-.422.202-.437.161-.458.121-.47.085-.476.04-.484v-.484l-.044-.484-.084-.477-.125-.466L21.5 9.7l-.206-.436-.238-.422-.275-.4-.308-.374-.341-.345-.367-.315-.396-.282-.414-.25-.437-.212-.45-.173-.466-.132-.477-.091-.484-.052-.48-.01Zm-.814 18.776v1.877h1.878V24.98h-1.878Z" fill="url(#a)"/><defs><linearGradient id="a" x1=".337" y1="16.531" x2="32.244" y2="16.531" gradientUnits="userSpaceOnUse"><stop stop-color="#3068D0"/><stop offset=".5" stop-color="#836BAF"/><stop offset="1" stop-color="#978262"/></linearGradient></defs></svg>