<svg width="15" height="15" viewBox="0 0 15 15" fill="none" xmlns="http://www.w3.org/2000/svg">
<g filter="url(#filter0_bi_34_26)">
<g filter="url(#filter1_bi_34_26)">
<path d="M7.27275 0.00402098L7.29131 0.00341331C9.22832 -0.0561253 11.1813 0.66541 12.5932 1.99765C14.0749 3.39566 14.9403 5.27788 14.9971 7.31819C15.0517 9.27665 14.3227 11.2259 12.975 12.6508C11.6164 14.0873 9.71971 14.94 7.74249 14.9933C7.7342 14.9938 7.72592 14.9944 7.71764 14.9947C7.31805 15.0127 6.90798 14.9832 6.51206 14.9293C5.018 14.7261 3.61525 14.0889 2.49415 13.0758C0.977849 11.7055 0.110888 9.8624 0.008558 7.8215C-0.0892178 5.87164 0.656316 3.90602 1.9635 2.46636C3.34337 0.946621 5.23203 0.103172 7.27275 0.00402098Z" fill="url(#paint0_linear_34_26)"/>
<path d="M7.28984 1.31141C7.29114 1.31131 7.29245 1.31119 7.29376 1.31113C8.92964 1.24982 10.4075 1.81843 11.6347 2.88687C11.8174 3.04595 11.984 3.22517 12.1438 3.40688C13.0338 4.41876 13.6041 5.70791 13.6957 7.05785C13.8089 8.72468 13.2824 10.2984 12.1818 11.5553C11.3161 12.5441 10.1464 13.2323 8.86252 13.5147C8.49582 13.5953 8.12838 13.6377 7.7542 13.6621C6.36296 13.6953 5.02891 13.3433 3.88852 12.5293C3.67197 12.3748 3.47066 12.2022 3.27276 12.0247C2.12471 10.995 1.40622 9.43308 1.32582 7.89832C1.23737 6.20952 1.77297 4.62194 2.90844 3.36357C4.04355 2.10559 5.6044 1.39686 7.28984 1.31141Z" fill="url(#paint1_linear_34_26)"/>
<path d="M7.27308 2.51896L7.30857 2.51686C8.61997 2.44945 9.89577 2.95462 10.8631 3.82941C11.8255 4.69966 12.4217 5.96634 12.483 7.26184C12.5462 8.59416 12.0919 9.89079 11.1928 10.8803C10.2787 11.8863 9.05734 12.4101 7.70975 12.4739C6.40711 12.5172 5.09247 12.0826 4.12572 11.1971C3.1637 10.316 2.56479 9.05161 2.51032 7.74611C2.45652 6.45639 2.88993 5.15112 3.77002 4.19506C4.68999 3.19569 5.90737 2.57588 7.27308 2.51896Z" fill="url(#paint2_linear_34_26)"/>
</g>
<path d="M5.44828 11.6207H6.41379V10.1724H9.31034V9.20692H6.41379V8.2414H8.58621C9.91717 8.2414 11 7.15858 11 5.82761C11 4.49665 9.91717 3.41382 8.58621 3.41382H5.93103C5.803 3.41382 5.68021 3.46468 5.58967 3.55522C5.49914 3.64575 5.44828 3.76854 5.44828 3.89658V7.27589H4V8.2414H5.44828V9.20692H4V10.1724H5.44828V11.6207ZM6.41379 4.37934H8.58621C9.38469 4.37934 10.0345 5.02913 10.0345 5.82761C10.0345 6.62609 9.38469 7.27589 8.58621 7.27589H6.41379V4.37934Z" fill="url(#paint3_linear_34_26)"/>
</g>
<defs>
<filter id="filter0_bi_34_26" x="-50" y="-50" width="115" height="115" filterUnits="userSpaceOnUse" color-interpolation-filters="sRGB">
<feFlood flood-opacity="0" result="BackgroundImageFix"/>
<feGaussianBlur in="BackgroundImageFix" stdDeviation="25"/>
<feComposite in2="SourceAlpha" operator="in" result="effect1_backgroundBlur_34_26"/>
<feBlend mode="normal" in="SourceGraphic" in2="effect1_backgroundBlur_34_26" result="shape"/>
<feColorMatrix in="SourceAlpha" type="matrix" values="0 0 0 0 0 0 0 0 0 0 0 0 0 0 0 0 0 0 127 0" result="hardAlpha"/>
<feOffset/>
<feGaussianBlur stdDeviation="10"/>
<feComposite in2="hardAlpha" operator="arithmetic" k2="-1" k3="1"/>
<feColorMatrix type="matrix" values="0 0 0 0 1 0 0 0 0 1 0 0 0 0 1 0 0 0 0.05 0"/>
<feBlend mode="normal" in2="shape" result="effect2_innerShadow_34_26"/>
</filter>
<filter id="filter1_bi_34_26" x="-50" y="-50" width="115" height="115" filterUnits="userSpaceOnUse" color-interpolation-filters="sRGB">
<feFlood flood-opacity="0" result="BackgroundImageFix"/>
<feGaussianBlur in="BackgroundImageFix" stdDeviation="25"/>
<feComposite in2="SourceAlpha" operator="in" result="effect1_backgroundBlur_34_26"/>
<feBlend mode="normal" in="SourceGraphic" in2="effect1_backgroundBlur_34_26" result="shape"/>
<feColorMatrix in="SourceAlpha" type="matrix" values="0 0 0 0 0 0 0 0 0 0 0 0 0 0 0 0 0 0 127 0" result="hardAlpha"/>
<feOffset/>
<feGaussianBlur stdDeviation="10"/>
<feComposite in2="hardAlpha" operator="arithmetic" k2="-1" k3="1"/>
<feColorMatrix type="matrix" values="0 0 0 0 1 0 0 0 0 1 0 0 0 0 1 0 0 0 0.05 0"/>
<feBlend mode="normal" in2="shape" result="effect2_innerShadow_34_26"/>
</filter>
<linearGradient id="paint0_linear_34_26" x1="0.509915" y1="-0.0077754" x2="15" y2="-0.00777568" gradientUnits="userSpaceOnUse">
<stop stop-color="#464C94"/>
<stop offset="1" stop-color="#60419B"/>
</linearGradient>
<linearGradient id="paint1_linear_34_26" x1="1.73774" y1="1.30023" x2="13.7107" y2="1.30023" gradientUnits="userSpaceOnUse">
<stop stop-color="#464C94"/>
<stop offset="1" stop-color="#60419B"/>
</linearGradient>
<linearGradient id="paint2_linear_34_26" x1="2.84522" y1="2.5057" x2="12.4888" y2="2.5057" gradientUnits="userSpaceOnUse">
<stop stop-color="#464C94"/>
<stop offset="1" stop-color="#60419B"/>
</linearGradient>
<linearGradient id="paint3_linear_34_26" x1="3" y1="2" x2="11" y2="12" gradientUnits="userSpaceOnUse">
<stop stop-color="#C5C7D5"/>
<stop offset="1" stop-color="#8F8C95"/>
</linearGradient>
</defs>
</svg>
