<svg width="35" height="35" viewBox="0 0 35 35" fill="none" xmlns="http://www.w3.org/2000/svg">
<path d="M33.9845 11.655H0.979492C1.32949 10.64 1.78449 9.66 2.30949 8.75C5.35449 3.5 11.0245 0 17.4995 0C23.9745 0 29.6445 3.5 32.6545 8.75C33.1795 9.66 33.6345 10.64 33.9845 11.655Z" fill="white"/>
<path d="M35 17.5C35 19.53 34.65 21.525 33.985 23.345H0.98C0.35 21.525 0 19.53 0 17.5C0 15.47 0.35 13.475 0.98 11.655H33.985C34.65 13.475 35 15.47 35 17.5Z" fill="#35469C"/>
<path d="M33.9846 23.345C33.6346 24.36 33.1796 25.34 32.6546 26.25C29.6446 31.5 23.9746 35 17.4996 35C11.0246 35 5.35465 31.5 2.34465 26.25C1.81965 25.34 1.36465 24.36 1.01465 23.345H33.9846Z" fill="#ED2424"/>
</svg>
