<svg xmlns="http://www.w3.org/2000/svg" width="16" height="18" fill="none"><path fill="#fff" d="M13.974 11.79h-8.38a.586.586 0 0 1-.383-.144.668.668 0 0 1-.215-.37l-1.411-6.62a.71.71 0 0 1 .118-.558.623.623 0 0 1 .213-.184.577.577 0 0 1 .266-.065h11.204c.092 0 .183.022.266.065a.623.623 0 0 1 .214.183.712.712 0 0 1 .118.56l-1.413 6.62a.668.668 0 0 1-.215.369.586.586 0 0 1-.382.144Zm-7.892-1.32h7.404l1.13-5.3H4.951l1.13 5.3ZM6.793 17.685a2.23 2.23 0 0 1-1.304-.426 2.497 2.497 0 0 1-.865-1.135 2.71 2.71 0 0 1-.134-1.461c.091-.49.315-.941.643-1.295a2.301 2.301 0 0 1 1.202-.692 2.192 2.192 0 0 1 1.357.144c.429.191.796.515 1.054.931.258.416.395.905.395 1.405 0 .67-.248 1.313-.688 1.787-.44.474-1.037.741-1.66.742Zm0-3.737c-.222 0-.439.07-.623.203a1.194 1.194 0 0 0-.414.543c-.085.221-.107.464-.064.699.044.234.15.45.308.619a1.1 1.1 0 0 0 .575.33c.217.047.443.023.648-.069.205-.091.38-.246.504-.445.123-.199.189-.433.189-.672 0-.32-.119-.628-.33-.854a1.084 1.084 0 0 0-.793-.354ZM12.774 17.685a2.23 2.23 0 0 1-1.304-.426 2.498 2.498 0 0 1-.865-1.135 2.71 2.71 0 0 1-.134-1.461c.091-.49.315-.941.643-1.295a2.301 2.301 0 0 1 1.202-.692 2.192 2.192 0 0 1 1.357.144c.429.191.796.515 1.054.931.258.416.395.905.395 1.405 0 .67-.248 1.313-.688 1.787-.44.474-1.037.741-1.66.742Zm0-3.737c-.222 0-.439.07-.623.203a1.195 1.195 0 0 0-.414.543c-.085.221-.107.464-.064.699.044.234.15.45.308.619a1.1 1.1 0 0 0 .575.33c.217.047.443.023.648-.069.205-.091.38-.246.504-.445.123-.199.189-.433.189-.672 0-.32-.119-.628-.33-.854a1.084 1.084 0 0 0-.793-.354Z"/><path fill="#fff" d="M4.182 5.169a.584.584 0 0 1-.358-.125.659.659 0 0 1-.223-.327L2.55 1.32H.613a.591.591 0 0 1-.434-.194A.686.686 0 0 1 0 .66C0 .485.065.317.18.193A.591.591 0 0 1 .612 0h2.381c.129 0 .254.044.359.125a.659.659 0 0 1 .223.326l1.19 3.85a.708.708 0 0 1-.085.594.628.628 0 0 1-.218.201.577.577 0 0 1-.279.073h-.002Z"/></svg>