<svg width="20" height="20" fill="none" xmlns="http://www.w3.org/2000/svg"><path d="M7.857 0C3.525 0 0 3.525 0 7.857c0 4.332 3.525 7.857 7.857 7.857 4.332 0 7.857-3.525 7.857-7.857C15.714 3.525 12.19 0 7.857 0Zm0 14.286A6.436 6.436 0 0 1 1.43 7.857 6.436 6.436 0 0 1 7.857 1.43a6.436 6.436 0 0 1 6.429 6.428 6.436 6.436 0 0 1-6.429 6.429Z" fill="url(#a)"/><path d="m19.79 18.78-4.286-4.285a.713.713 0 1 0-1.01 1.01l4.287 4.286a.712.712 0 0 0 1.01 0c.279-.28.279-.731 0-1.01Z" fill="url(#b)"/><defs><linearGradient id="a" x1="0" y1="7.857" x2="15.714" y2="7.857" gradientUnits="userSpaceOnUse"><stop stop-color="#3068D0"/><stop offset=".5" stop-color="#836BAF"/><stop offset="1" stop-color="#978262"/></linearGradient><linearGradient id="b" x1="14.285" y1="17.143" x2="20" y2="17.143" gradientUnits="userSpaceOnUse"><stop stop-color="#3068D0"/><stop offset=".5" stop-color="#836BAF"/><stop offset="1" stop-color="#978262"/></linearGradient></defs></svg>