<svg width="20" height="20" fill="none" xmlns="http://www.w3.org/2000/svg"><path d="M15.757 20H4.22a4.216 4.216 0 0 1-4.085-5.254L2.473 5.2a.77.77 0 0 1 .769-.585h12.884a.77.77 0 0 1 .77.539l2.907 9.354a4.224 4.224 0 0 1-.638 3.776A4.161 4.161 0 0 1 15.757 20ZM3.82 6.154l-2.223 8.961a2.693 2.693 0 0 0 2.592 3.346h11.538a2.647 2.647 0 0 0 2.147-1.092 2.692 2.692 0 0 0 .407-2.408l-2.707-8.807H3.819Z" fill="url(#a)"/><path d="M13.049 10.77a.769.769 0 0 1-.77-.77V3.846a2.308 2.308 0 0 0-4.615 0V10a.77.77 0 1 1-1.538 0V3.846a3.846 3.846 0 1 1 7.692 0V10a.769.769 0 0 1-.769.77Z" fill="url(#b)"/><defs><linearGradient id="a" x1=".004" y1="12.307" x2="19.996" y2="12.307" gradientUnits="userSpaceOnUse"><stop stop-color="#3068D0"/><stop offset=".5" stop-color="#836BAF"/><stop offset="1" stop-color="#978262"/></linearGradient><linearGradient id="b" x1="6.126" y1="5.385" x2="13.818" y2="5.385" gradientUnits="userSpaceOnUse"><stop stop-color="#3068D0"/><stop offset=".5" stop-color="#836BAF"/><stop offset="1" stop-color="#978262"/></linearGradient></defs></svg>