<svg width="20" height="20" viewBox="0 0 20 20" fill="none" xmlns="http://www.w3.org/2000/svg">
<path d="M15.7572 19.9998H4.21889C3.57696 19.9997 2.94355 19.8529 2.36696 19.5708C1.79036 19.2886 1.28582 18.8785 0.891824 18.3718C0.497823 17.865 0.224769 17.2749 0.0934888 16.6465C-0.0377915 16.0182 -0.0238301 15.3681 0.134308 14.746L2.47275 5.19993C2.51486 5.02926 2.61417 4.87816 2.75413 4.77179C2.89409 4.66542 3.06626 4.6102 3.24197 4.61532H16.1265C16.2962 4.60755 16.4636 4.65616 16.6028 4.75357C16.7419 4.85097 16.8449 4.99169 16.8957 5.15378L19.8034 14.5075C20.0022 15.1429 20.0479 15.8162 19.937 16.4725C19.826 17.1289 19.5615 17.7498 19.1649 18.2844C18.7748 18.8214 18.262 19.2572 17.6692 19.5556C17.0764 19.854 16.4209 20.0063 15.7572 19.9998ZM3.81889 6.15377L1.59583 15.1152C1.49684 15.5106 1.48891 15.9233 1.57263 16.3222C1.65636 16.7211 1.82956 17.0958 2.07918 17.418C2.3288 17.7402 2.64831 18.0015 3.01363 18.1822C3.37896 18.363 3.78054 18.4584 4.18812 18.4614H15.7265C16.1451 18.462 16.5579 18.3634 16.931 18.1735C17.3041 17.9836 17.6268 17.7079 17.8726 17.3691C18.1255 17.0283 18.2943 16.6325 18.3651 16.2141C18.436 15.7957 18.4069 15.3664 18.2803 14.9614L15.5726 6.15377H3.81889Z" fill="url(#paint0_linear_206_949)"/>
<path d="M13.049 10.7691C12.845 10.7691 12.6493 10.6881 12.5051 10.5438C12.3608 10.3996 12.2798 10.2039 12.2798 9.99991V3.84612C12.2798 3.23409 12.0366 2.64712 11.6039 2.21435C11.1711 1.78158 10.5841 1.53845 9.9721 1.53845C9.36006 1.53845 8.7731 1.78158 8.34033 2.21435C7.90755 2.64712 7.66442 3.23409 7.66442 3.84612V9.99991C7.66442 10.2039 7.58338 10.3996 7.43912 10.5438C7.29487 10.6881 7.09921 10.7691 6.8952 10.7691C6.69119 10.7691 6.49553 10.6881 6.35128 10.5438C6.20702 10.3996 6.12598 10.2039 6.12598 9.99991V3.84612C6.12598 2.82607 6.53119 1.84779 7.25248 1.1265C7.97377 0.405215 8.95204 0 9.9721 0C10.9922 0 11.9704 0.405215 12.6917 1.1265C13.413 1.84779 13.8182 2.82607 13.8182 3.84612V9.99991C13.8182 10.2039 13.7372 10.3996 13.5929 10.5438C13.4487 10.6881 13.253 10.7691 13.049 10.7691Z" fill="url(#paint1_linear_206_949)"/>
<defs>
<linearGradient id="paint0_linear_206_949" x1="0.00439453" y1="12.3073" x2="19.9961" y2="12.3073" gradientUnits="userSpaceOnUse">
<stop stop-color="#3068D0"/>
<stop offset="0.5" stop-color="#836BAF"/>
<stop offset="1" stop-color="#978262"/>
</linearGradient>
<linearGradient id="paint1_linear_206_949" x1="6.12598" y1="5.38457" x2="13.8182" y2="5.38457" gradientUnits="userSpaceOnUse">
<stop stop-color="#3068D0"/>
<stop offset="0.5" stop-color="#836BAF"/>
<stop offset="1" stop-color="#978262"/>
</linearGradient>
</defs>
</svg>
