<svg width="29" height="31" fill="none" xmlns="http://www.w3.org/2000/svg"><path d="M17.892 11.636H7.729v.726h10.163v-.726Z" fill="url(#a)"/><path d="M5.625 12.726a.726.726 0 1 0 0-1.452.726.726 0 0 0 0 1.452Z" fill="url(#b)"/><path d="M17.892 15.269H7.729v.725h10.163v-.725Z" fill="url(#c)"/><path d="M5.625 16.358a.726.726 0 1 0 0-1.452.726.726 0 0 0 0 1.452Z" fill="url(#d)"/><path d="M5.625 19.99a.726.726 0 1 0 0-1.452.726.726 0 0 0 0 1.453Z" fill="url(#e)"/><path d="M13.537 22.533H7.729v.726h5.808v-.726Z" fill="url(#f)"/><path d="M5.625 23.623a.726.726 0 1 0 0-1.452.726.726 0 0 0 0 1.452Z" fill="url(#g)"/><path d="M28.706 9.86 27.68 8.831l-.642.642-.257-.256-1 .963-3.534 3.5v-6.04c0-2.404-1.88-4.36-4.281-4.36h-.437v-.363c0-.4-.253-.726-.652-.726h-3.992a1.452 1.452 0 1 0-2.904 0H5.99c-.4 0-.8.327-.8.726v.363H4.9c-2.402 0-4.43 1.956-4.43 4.36v18.162c0 2.403 2.028 4.358 4.43 4.358h13.066c2.401 0 4.281-1.955 4.281-4.358v-9.04l4.754-4.764h.018l1.293-1.262-.252-.247.646-.63ZM11.433 1.464a.726.726 0 1 1-.001 1.453.726.726 0 0 1 0-1.453Zm9.362 24.338c0 1.602-1.228 2.905-2.83 2.905H4.9c-1.6 0-2.978-1.303-2.978-2.905V7.64c0-1.602 1.377-2.906 2.978-2.906h.363L4.9 6.187c0 .4.327.727.726.727H17.24c.4 0 .726-.327.726-.727l-.363-1.453h.363c1.6 0 2.83 1.304 2.83 2.906v7.494l-3.69 3.767H7.73v.726h8.65l-.827.828-.641 1.413-.642 1.413 2.786-1.285 3.74-3.78v7.587Zm-4.27-3.862-1.059.482-.34-.34.482-1.06.843.844.074.074Zm10.577-10.476-1.027-1.028.652-.65-.074.072 1.026 1.027.129-.128-.706.707Z" fill="url(#h)"/><defs><linearGradient id="a" x1="7.729" y1="11.999" x2="17.892" y2="11.999" gradientUnits="userSpaceOnUse"><stop stop-color="#3068D0"/><stop offset=".5" stop-color="#836BAF"/><stop offset="1" stop-color="#978262"/></linearGradient><linearGradient id="b" x1="4.899" y1="11.999" x2="6.351" y2="11.999" gradientUnits="userSpaceOnUse"><stop stop-color="#3068D0"/><stop offset=".5" stop-color="#836BAF"/><stop offset="1" stop-color="#978262"/></linearGradient><linearGradient id="c" x1="7.729" y1="15.632" x2="17.892" y2="15.632" gradientUnits="userSpaceOnUse"><stop stop-color="#3068D0"/><stop offset=".5" stop-color="#836BAF"/><stop offset="1" stop-color="#978262"/></linearGradient><linearGradient id="d" x1="4.899" y1="15.632" x2="6.351" y2="15.632" gradientUnits="userSpaceOnUse"><stop stop-color="#3068D0"/><stop offset=".5" stop-color="#836BAF"/><stop offset="1" stop-color="#978262"/></linearGradient><linearGradient id="e" x1="4.899" y1="19.264" x2="6.351" y2="19.264" gradientUnits="userSpaceOnUse"><stop stop-color="#3068D0"/><stop offset=".5" stop-color="#836BAF"/><stop offset="1" stop-color="#978262"/></linearGradient><linearGradient id="f" x1="7.729" y1="22.896" x2="13.537" y2="22.896" gradientUnits="userSpaceOnUse"><stop stop-color="#3068D0"/><stop offset=".5" stop-color="#836BAF"/><stop offset="1" stop-color="#978262"/></linearGradient><linearGradient id="g" x1="4.899" y1="22.897" x2="6.351" y2="22.897" gradientUnits="userSpaceOnUse"><stop stop-color="#3068D0"/><stop offset=".5" stop-color="#836BAF"/><stop offset="1" stop-color="#978262"/></linearGradient><linearGradient id="h" x1=".471" y1="15.45" x2="28.706" y2="15.45" gradientUnits="userSpaceOnUse"><stop stop-color="#3068D0"/><stop offset=".5" stop-color="#836BAF"/><stop offset="1" stop-color="#978262"/></linearGradient></defs></svg>