<svg xmlns="http://www.w3.org/2000/svg" width="45" height="45" fill="none"><path fill="url(#a)" d="M37.252 41.99H7.735a4.738 4.738 0 0 1-3.474-1.406 4.711 4.711 0 0 1-1.406-3.473V7.706A4.725 4.725 0 0 1 4.219 4.22a4.739 4.739 0 0 1 3.516-1.407h29.53a4.753 4.753 0 0 1 3.516 1.407 4.724 4.724 0 0 1 1.407 3.46v29.404a4.71 4.71 0 0 1-1.407 3.473 4.752 4.752 0 0 1-3.53 1.435Zm-7.566-9.435a1.11 1.11 0 0 0 1.195-.928l3.896-18.633a.774.774 0 0 0-.253-.647.872.872 0 0 0-.577-.24c-.075 0-7.823 2.865-23.245 8.593a.83.83 0 0 0-.577.83.801.801 0 0 0 .605.73l5.625 1.745 2.264 6.792a.872.872 0 0 0 .886.605.788.788 0 0 0 .562-.24l3.193-3.037 5.751 4.219c.2.133.435.206.675.21Zm-10.28-3.432-1.701-5.625c8.175-5.203 12.29-7.804 12.347-7.804.21 0 .323 0 .323.225a.254.254 0 0 1 0 .084s-3.53 3.235-10.575 9.563l-.394 3.557Z"/><defs><linearGradient id="a" x1="2.852" x2="42.189" y1="22.401" y2="22.401" gradientUnits="userSpaceOnUse"><stop stop-color="#3068D0"/><stop offset=".5" stop-color="#836BAF"/><stop offset="1" stop-color="#978262"/></linearGradient></defs></svg>