<svg width="29" height="26" fill="none" xmlns="http://www.w3.org/2000/svg"><path d="M27.439 1.46a2.275 2.275 0 0 0-2.317-.368L1.745 10.45a1.868 1.868 0 0 0 0 3.45l1.51.622a1.02 1.02 0 0 0 1.416-.932 1.02 1.02 0 0 0-.63-.946l-1.123-.46L25.888 3a.224.224 0 0 1 .234 0 .245.245 0 0 1 .082.235L22.01 22.806a.409.409 0 0 1-.265.306.398.398 0 0 1-.398-.06l-8.164-6.368 7.99-8.072a1.02 1.02 0 0 0-1.245-1.591L8.214 13.959a1.02 1.02 0 1 0 1.02 1.755l4.93-2.908-2.399 2.44a2.041 2.041 0 0 0 .204 3.142l8.164 6.275a2.449 2.449 0 0 0 2.346.358 2.418 2.418 0 0 0 1.552-1.786l4.163-19.551a2.275 2.275 0 0 0-.755-2.225Z" fill="url(#a)"/><defs><linearGradient id="a" x1=".594" y1="13.05" x2="28.246" y2="13.05" gradientUnits="userSpaceOnUse"><stop stop-color="#3068D0"/><stop offset=".5" stop-color="#836BAF"/><stop offset="1" stop-color="#978262"/></linearGradient></defs></svg>