<svg xmlns="http://www.w3.org/2000/svg" width="35" height="35" fill="none"><path fill="url(#a)" d="M17.5 35C27.165 35 35 27.165 35 17.5S27.165 0 17.5 0 0 7.835 0 17.5 7.835 35 17.5 35Z"/><path fill="#fff" d="m26.018 10.07-3.124 15.756s-.438 1.094-1.641.568l-7.212-5.53-2.625-1.265L7 18.115s-.677-.239-.745-.765c-.068-.527.766-.807.766-.807l17.554-6.884c0-.007 1.443-.642 1.443.41Z"/><path fill="#D2E4F0" d="M13.48 25.648s-.211-.02-.471-.847-1.593-5.202-1.593-5.202l10.603-6.734s.615-.369.587 0c0 0 .11.069-.218.37-.328.307-8.327 7.498-8.327 7.498"/><path fill="#B5CFE4" d="m16.803 22.982-2.85 2.605s-.226.17-.466.061l.547-4.833"/><defs><linearGradient id="a" x1="17.5" x2="17.5" y1="0" y2="34.872" gradientUnits="userSpaceOnUse"><stop stop-color="#41BCE7"/><stop offset="1" stop-color="#22A6DC"/></linearGradient></defs></svg>