<svg width="35" height="35" viewBox="0 0 35 35" fill="none" xmlns="http://www.w3.org/2000/svg">
<path d="M17.5 35C27.165 35 35 27.165 35 17.5C35 7.83502 27.165 0 17.5 0C7.83502 0 0 7.83502 0 17.5C0 27.165 7.83502 35 17.5 35Z" fill="url(#paint0_linear_221_3055)"/>
<path d="M26.0177 10.0693L22.8936 25.8262C22.8936 25.8262 22.4561 26.9199 21.253 26.3936L14.0411 20.8633L11.4161 19.5986L7.00008 18.1152C7.00008 18.1152 6.32332 17.876 6.25496 17.3496C6.1866 16.8232 7.02059 16.543 7.02059 16.543L24.5753 9.65918C24.5753 9.65234 26.0177 9.0166 26.0177 10.0693Z" fill="white"/>
<path d="M13.4805 25.6484C13.4805 25.6484 13.2686 25.6279 13.0088 24.8008C12.749 23.9736 11.416 19.5986 11.416 19.5986L22.0186 12.8652C22.0186 12.8652 22.6338 12.4961 22.6064 12.8652C22.6064 12.8652 22.7158 12.9336 22.3877 13.2344C22.0596 13.542 14.0615 20.7334 14.0615 20.7334" fill="#D2E4F0"/>
<path d="M16.8027 22.9824L13.9521 25.5869C13.9521 25.5869 13.7266 25.7578 13.4873 25.6484L14.0342 20.8154" fill="#B5CFE4"/>
<defs>
<linearGradient id="paint0_linear_221_3055" x1="17.5" y1="0" x2="17.5" y2="34.8723" gradientUnits="userSpaceOnUse">
<stop stop-color="#41BCE7"/>
<stop offset="1" stop-color="#22A6DC"/>
</linearGradient>
</defs>
</svg>
