<svg width="10" height="9" viewBox="0 0 10 9" fill="none" xmlns="http://www.w3.org/2000/svg">
<path d="M5.27655 9C4.38147 9 3.5065 8.73608 2.76228 8.24161C2.01805 7.74715 1.438 7.04434 1.09547 6.22208C0.752937 5.39981 0.663316 4.49501 0.837936 3.62209C1.01256 2.74918 1.44357 1.94736 2.07649 1.31802C2.7094 0.688685 3.51578 0.260102 4.39365 0.0864682C5.27153 -0.0871652 6.18147 0.00194982 7.00841 0.342544C7.83535 0.683138 8.54214 1.25991 9.03942 1.99994C9.53669 2.73996 9.80211 3.60999 9.80211 4.5C9.80211 5.69347 9.32531 6.83807 8.47661 7.68198C7.6279 8.52589 6.4768 9 5.27655 9ZM5.27655 0.600002C4.50082 0.600002 3.74251 0.828733 3.09751 1.25727C2.45252 1.68581 1.9498 2.2949 1.65294 3.00754C1.35609 3.72017 1.27841 4.50433 1.42975 5.26085C1.58109 6.01738 1.95464 6.71229 2.50316 7.25772C3.05168 7.80314 3.75055 8.17458 4.51137 8.32506C5.2722 8.47554 6.06081 8.39831 6.77749 8.10313C7.49417 7.80795 8.10673 7.30808 8.5377 6.66672C8.96867 6.02537 9.1987 5.27135 9.1987 4.5C9.1987 3.46566 8.78548 2.47368 8.04993 1.74229C7.31438 1.01089 6.31677 0.600002 5.27655 0.600002Z" fill="white"/>
<path d="M6.55408 6.19565L5.06064 4.71065C5.03268 4.68262 5.01056 4.64938 4.99554 4.61283C4.98053 4.57628 4.97292 4.53714 4.97315 4.49766V2.09766H5.57656V4.37466L6.9825 5.76965L6.55408 6.19565Z" fill="white"/>
</svg>
