<svg width="10" height="9" fill="none" xmlns="http://www.w3.org/2000/svg"><path d="M5.277 9c-.896 0-1.77-.264-2.515-.758a4.506 4.506 0 0 1-1.667-2.02 4.476 4.476 0 0 1 .981-4.904A4.55 4.55 0 0 1 7.008.343 4.52 4.52 0 0 1 9.04 2a4.482 4.482 0 0 1-.562 5.682c-.85.844-2 1.318-3.2 1.318Zm0-8.4c-.776 0-1.534.229-2.18.657a3.905 3.905 0 0 0-1.444 1.75 3.88 3.88 0 0 0 .85 4.25 3.943 3.943 0 0 0 4.274.845 3.917 3.917 0 0 0 1.76-1.435 3.884 3.884 0 0 0-.487-4.925A3.933 3.933 0 0 0 5.277.6Z" fill="#fff"/><path d="M6.554 6.196 5.061 4.71a.3.3 0 0 1-.088-.213v-2.4h.604v2.277L6.982 5.77l-.428.426Z" fill="#fff"/></svg>