<svg xmlns="http://www.w3.org/2000/svg" width="27" height="27" fill="none"><path fill="#87888D" d="M13.5 0C6.056 0 0 6.056 0 13.5 0 20.945 6.056 27 13.5 27S27 20.945 27 13.5C27 6.056 20.944 0 13.5 0Zm0 24.87c-6.27 0-11.37-5.1-11.37-11.37S7.23 2.13 13.5 2.13s11.37 5.1 11.37 11.37-5.1 11.37-11.37 11.37Z"/><path fill="#87888D" d="M11.365 10.855c0-.854 1.25-1 2.333-1 1.021 0 2.416.478 3.583 1.083l.229-2.354c-.584-.333-1.937-.73-3.312-.812l.333-2.396h-2.229l.334 2.396c-2.875.27-3.813 1.937-3.813 3.333 0 3.52 6.562 2.77 6.562 4.936 0 .814-.77 1.104-2.125 1.104-1.833 0-3.208-.645-3.916-1.312L8.99 18.48c.667.396 2.02.75 3.646.834l-.334 2.312h2.229l-.333-2.334c3.374-.291 3.978-2.083 3.978-3.27 0-4.187-6.81-3.146-6.81-5.166Z"/></svg>