<svg xmlns="http://www.w3.org/2000/svg" width="27" height="27" fill="none"><path fill="#fff" d="M13.5 0C6.056 0 0 6.056 0 13.5 0 20.945 6.056 27 13.5 27S27 20.945 27 13.5C27 6.056 20.944 0 13.5 0Zm0 24.87c-6.27 0-11.37-5.1-11.37-11.37S7.23 2.13 13.5 2.13s11.37 5.1 11.37 11.37-5.1 11.37-11.37 11.37Z"/><path fill="#fff" d="M11.365 10.854c0-.854 1.249-1 2.333-1 1.02 0 2.416.48 3.583 1.084l.229-2.354c-.584-.334-1.938-.73-3.313-.812l.334-2.396H12.3l.334 2.396c-2.874.27-3.812 1.937-3.812 3.332 0 3.52 6.561 2.772 6.561 4.937 0 .813-.77 1.104-2.124 1.104-1.833 0-3.208-.645-3.916-1.312L8.99 18.48c.667.396 2.02.75 3.645.834l-.333 2.312h2.229l-.334-2.334c3.375-.292 3.98-2.083 3.98-3.27 0-4.187-6.812-3.146-6.812-5.167Z"/></svg>