<svg width="27" height="27" viewBox="0 0 27 27" fill="none" xmlns="http://www.w3.org/2000/svg">
<path d="M13.5 0C6.05559 0 0 6.05641 0 13.5004C0 20.9445 6.05559 27 13.5 27C20.944 27 27 20.9445 27 13.5004C27 6.05641 20.9441 0 13.5 0ZM13.5 24.8705C7.23007 24.8705 2.12939 19.7699 2.12939 13.5004C2.12939 7.23007 7.23007 2.12939 13.5 2.12939C19.7699 2.12939 24.8706 7.23007 24.8706 13.5004C24.8706 19.7699 19.7699 24.8705 13.5 24.8705Z" fill="white"/>
<path d="M11.3648 10.8545C11.3648 10.0004 12.614 9.85455 13.6976 9.85455C14.7188 9.85455 16.1143 10.3332 17.2811 10.9381L17.5097 8.58404C16.9262 8.25044 15.5725 7.85454 14.1975 7.77181L14.5308 5.37598H12.3017L12.6354 7.77181C9.76088 8.04223 8.82324 9.70863 8.82324 11.1045C8.82324 14.6248 15.3845 13.8757 15.3845 16.0412C15.3845 16.8543 14.6144 17.1453 13.26 17.1453C11.4272 17.1453 10.0518 16.5002 9.34409 15.8331L8.9896 18.4789C9.65681 18.8748 11.0101 19.2288 12.6354 19.3125L12.3017 21.6247H14.5308L14.1975 19.2912C17.5721 18.9994 18.1761 17.2077 18.1761 16.0208C18.1762 11.834 11.3648 12.8749 11.3648 10.8545Z" fill="white"/>
</svg>
