<svg xmlns="http://www.w3.org/2000/svg" width="31" height="21" fill="none"><path fill="url(#a)" d="M30.46 2.69c-.26-.133-.521-.133-.651 0l-4.557 3.59V4.686c0-2.128-1.693-3.856-3.776-3.856H4.68C2.596.829.904 2.557.904 4.685v11.967c0 2.127 1.692 3.856 3.776 3.856h16.796c2.083 0 3.776-1.729 3.776-3.856v-1.596l4.557 3.59c.13.133.39.133.65 0 .261-.133.391-.265.391-.531V3.222c0-.266-.13-.399-.39-.532Z"/><defs><linearGradient id="a" x1=".904" x2="30.85" y1="10.668" y2="10.668" gradientUnits="userSpaceOnUse"><stop stop-color="#3068D0"/><stop offset=".5" stop-color="#836BAF"/><stop offset="1" stop-color="#978262"/></linearGradient></defs></svg>