<svg width="35" height="31" fill="none" xmlns="http://www.w3.org/2000/svg"><path fill-rule="evenodd" clip-rule="evenodd" d="M34.271 27.167a3.645 3.645 0 0 1-3.646 3.645H4.375A3.645 3.645 0 0 1 .73 27.168V6.02a2.917 2.917 0 0 1 2.917-2.917h14.708L24.26.964a.722.722 0 0 1 .924.43l.622 1.71h2.632a2.917 2.917 0 0 1 2.917 2.917v1.458a2.917 2.917 0 0 1 2.916 2.917v16.77ZM3.646 4.562a1.459 1.459 0 0 0 0 2.917h2.65c.01-.004.015-.012.025-.015l8.008-2.902H3.646Zm21.203.132-.774-2.132-1.497.542h.002l-4.02 1.458h-.008L10.503 7.48h15.358l-1.012-2.785Zm5.047 1.327c0-.805-.653-1.459-1.458-1.459h-2.102l1.06 2.917h2.5V6.021Zm1.459 2.916H3.646a2.884 2.884 0 0 1-1.458-.404v18.634c0 1.208.98 2.187 2.187 2.187h26.25c1.209 0 2.188-.98 2.188-2.187v-5.105h-2.917a2.917 2.917 0 0 1 0-5.833h2.917v-5.833c0-.805-.654-1.459-1.459-1.459Zm1.458 11.667v-2.916h-2.917a1.459 1.459 0 0 0 0 2.916h2.917Zm-2.917-2.187h1.459v1.458h-1.459v-1.458Z" fill="url(#a)"/><defs><linearGradient id="a" x1=".729" y1="15.867" x2="34.271" y2="15.867" gradientUnits="userSpaceOnUse"><stop stop-color="#3068D0"/><stop offset=".5" stop-color="#836BAF"/><stop offset="1" stop-color="#978262"/></linearGradient></defs></svg>