<svg width="23" height="23" fill="none" xmlns="http://www.w3.org/2000/svg"><g filter="url(#a)"><rect width="22.816" height="22.816" rx="11.408" fill="#D9D9D9" fill-opacity=".05"/></g><g clip-path="url(#b)"><path d="M11.407 2.282a9.127 9.127 0 1 0 0 18.253 9.127 9.127 0 0 0 0-18.253Zm.57 17.083v-2.253h-1.14v2.253a7.985 7.985 0 0 1-7.387-7.387h2.253v-1.14H3.45a7.986 7.986 0 0 1 7.387-7.387v2.253h1.14V3.451a7.986 7.986 0 0 1 7.387 7.387h-2.253v1.14h2.253a7.986 7.986 0 0 1-7.386 7.387Z" fill="url(#c)"/><path d="M11.978 7.415h-1.141v3.993a.57.57 0 0 0 .165.405l2.852 2.852.805-.804-2.681-2.687V7.415Z" fill="url(#d)"/></g><defs><linearGradient id="c" x1="2.281" y1="11.408" x2="20.534" y2="11.408" gradientUnits="userSpaceOnUse"><stop stop-color="#3068D0"/><stop offset=".5" stop-color="#836BAF"/><stop offset="1" stop-color="#978262"/></linearGradient><linearGradient id="d" x1="10.837" y1="11.04" x2="14.659" y2="11.04" gradientUnits="userSpaceOnUse"><stop stop-color="#3068D0"/><stop offset=".5" stop-color="#836BAF"/><stop offset="1" stop-color="#978262"/></linearGradient><clipPath id="b"><path fill="#fff" transform="translate(2.282 2.282)" d="M0 0h18.253v18.253H0z"/></clipPath><filter id="a" x="-43.732" y="-43.732" width="110.28" height="110.28" filterUnits="userSpaceOnUse" color-interpolation-filters="sRGB"><feFlood flood-opacity="0" result="BackgroundImageFix"/><feGaussianBlur in="BackgroundImageFix" stdDeviation="21.866"/><feComposite in2="SourceAlpha" operator="in" result="effect1_backgroundBlur_220_2568"/><feBlend in="SourceGraphic" in2="effect1_backgroundBlur_220_2568" result="shape"/><feColorMatrix in="SourceAlpha" values="0 0 0 0 0 0 0 0 0 0 0 0 0 0 0 0 0 0 127 0" result="hardAlpha"/><feOffset/><feGaussianBlur stdDeviation="8.746"/><feComposite in2="hardAlpha" operator="arithmetic" k2="-1" k3="1"/><feColorMatrix values="0 0 0 0 1 0 0 0 0 1 0 0 0 0 1 0 0 0 0.05 0"/><feBlend in2="shape" result="effect2_innerShadow_220_2568"/></filter></defs></svg>