<svg width="33" height="33" fill="none" xmlns="http://www.w3.org/2000/svg"><g clip-path="url(#a)"><path d="M16.468.082a16.326 16.326 0 1 0 0 32.653 16.326 16.326 0 0 0 0-32.653Zm1.02 30.561v-4.03h-2.04v4.03A14.286 14.286 0 0 1 2.233 17.429h4.031v-2.041h-4.03A14.286 14.286 0 0 1 15.447 2.174v4.03h2.04v-4.03a14.286 14.286 0 0 1 13.215 13.214h-4.03v2.04h4.03a14.286 14.286 0 0 1-13.215 13.215Z" fill="url(#b)"/><path d="M17.488 9.266h-2.04v7.143a1.02 1.02 0 0 0 .295.724l5.102 5.102 1.439-1.439-4.796-4.806V9.266Z" fill="url(#c)"/></g><defs><linearGradient id="b" x1=".142" y1="16.408" x2="32.795" y2="16.408" gradientUnits="userSpaceOnUse"><stop stop-color="#3068D0"/><stop offset=".5" stop-color="#836BAF"/><stop offset="1" stop-color="#978262"/></linearGradient><linearGradient id="c" x1="15.447" y1="15.75" x2="22.284" y2="15.75" gradientUnits="userSpaceOnUse"><stop stop-color="#3068D0"/><stop offset=".5" stop-color="#836BAF"/><stop offset="1" stop-color="#978262"/></linearGradient><clipPath id="a"><path fill="#fff" transform="translate(.143 .082)" d="M0 0h32.653v32.653H0z"/></clipPath></defs></svg>