<svg width="25" height="24" viewBox="0 0 25 24" fill="none" xmlns="http://www.w3.org/2000/svg">
<g clip-path="url(#clip0_104_1395)">
<path d="M17.3883 5.37889C21.0232 5.37889 23.9699 4.3265 23.9699 3.02831C23.9699 1.73012 21.0232 0.677734 17.3883 0.677734C13.7533 0.677734 10.8066 1.73012 10.8066 3.02831C10.8066 4.3265 13.7533 5.37889 17.3883 5.37889Z" stroke="#C1A130" stroke-width="0.940232" stroke-miterlimit="10" stroke-linecap="round" stroke-linejoin="round"/>
<path d="M10.8066 3.49854C10.8066 3.92728 10.8066 5.89049 10.8066 6.31923C10.8066 7.61722 13.7524 8.66981 17.3883 8.66981C21.0241 8.66981 23.9699 7.61722 23.9699 6.31923C23.9699 5.89049 23.9699 3.92728 23.9699 3.49854" stroke="#C1A130" stroke-width="0.940232" stroke-miterlimit="10" stroke-linecap="round" stroke-linejoin="round"/>
<path d="M14.3564 11.6968C15.2638 11.8651 16.2952 11.9606 17.3887 11.9606C21.0246 11.9606 23.9703 10.908 23.9703 9.61C23.9703 9.18126 23.9703 7.21805 23.9703 6.78931" stroke="#C1A130" stroke-width="0.940232" stroke-miterlimit="10" stroke-linecap="round" stroke-linejoin="round"/>
<path d="M10.8066 6.78931C10.8066 7.21805 10.8066 8.7967 10.8066 8.7967" stroke="#C1A130" stroke-width="0.940232" stroke-miterlimit="10" stroke-linecap="round" stroke-linejoin="round"/>
<path d="M14.5791 15.0271C15.431 15.171 16.3829 15.2514 17.388 15.2514C21.0239 15.2514 23.9697 14.1992 23.9697 12.9008C23.9697 12.472 23.9697 10.5088 23.9697 10.0801" stroke="#C1A130" stroke-width="0.940232" stroke-miterlimit="10" stroke-linecap="round" stroke-linejoin="round"/>
<path d="M14.5435 18.3118C15.4042 18.4594 16.3694 18.5421 17.3886 18.5421C21.0245 18.5421 23.9702 17.49 23.9702 16.1915C23.9702 15.7628 23.9702 13.7996 23.9702 13.3708" stroke="#C1A130" stroke-width="0.940232" stroke-miterlimit="10" stroke-linecap="round" stroke-linejoin="round"/>
<path d="M7.98592 13.3708C11.6209 13.3708 14.5675 12.3184 14.5675 11.0203C14.5675 9.72207 11.6209 8.66968 7.98592 8.66968C4.35099 8.66968 1.4043 9.72207 1.4043 11.0203C1.4043 12.3184 4.35099 13.3708 7.98592 13.3708Z" stroke="#C1A130" stroke-width="0.940232" stroke-miterlimit="10" stroke-linecap="round" stroke-linejoin="round"/>
<path d="M1.4043 11.4905C1.4043 11.9192 1.4043 13.8824 1.4043 14.3112C1.4043 15.6096 4.35004 16.6618 7.98592 16.6618C11.6218 16.6618 14.5675 15.6096 14.5675 14.3112C14.5675 13.8824 14.5675 11.9192 14.5675 11.4905" stroke="#C1A130" stroke-width="0.940232" stroke-miterlimit="10" stroke-linecap="round" stroke-linejoin="round"/>
<path d="M1.4043 14.781C1.4043 15.2098 1.4043 17.173 1.4043 17.6017C1.4043 18.9002 4.35004 19.9523 7.98592 19.9523C11.6218 19.9523 14.5675 18.9002 14.5675 17.6017C14.5675 17.173 14.5675 15.2098 14.5675 14.781" stroke="#C1A130" stroke-width="0.940232" stroke-miterlimit="10" stroke-linecap="round" stroke-linejoin="round"/>
<path d="M1.4043 18.0718C1.4043 18.5005 1.4043 20.4637 1.4043 20.8925C1.4043 22.1909 4.35004 23.2431 7.98592 23.2431C11.6218 23.2431 14.5675 22.1909 14.5675 20.8925C14.5675 20.4637 14.5675 18.5005 14.5675 18.0718" stroke="#C1A130" stroke-width="0.940232" stroke-miterlimit="10" stroke-linecap="round" stroke-linejoin="round"/>
</g>
<defs>
<clipPath id="clip0_104_1395">
<rect width="23.5058" height="23.5058" fill="white" transform="translate(0.93457 0.20752)"/>
</clipPath>
</defs>
</svg>
