<svg width="23" height="22" viewBox="0 0 23 22" fill="none" xmlns="http://www.w3.org/2000/svg">
<path d="M17.2849 5.38364C17.1012 7.86037 15.2237 9.88081 13.1625 9.88081C11.1013 9.88081 9.22042 7.86083 9.04007 5.38364C8.85269 2.80714 10.6797 0.886475 13.1625 0.886475C15.6453 0.886475 17.4723 2.85399 17.2849 5.38364Z" stroke="#C1A130" stroke-width="1.34319" stroke-linecap="round" stroke-linejoin="round"/>
<path d="M13.1618 12.8789C9.08629 12.8789 4.94983 15.1275 4.18437 19.3717C4.09068 19.8832 4.38159 20.3742 4.9175 20.3742H21.4067C21.9426 20.3742 22.2321 19.8832 22.1398 19.3717C21.3739 15.1275 17.2374 12.8789 13.1618 12.8789Z" stroke="#C1A130" stroke-width="1.34319" stroke-miterlimit="10"/>
<path d="M3.79297 6.88257V12.1293" stroke="#C1A130" stroke-width="1.34319" stroke-linecap="round" stroke-linejoin="round"/>
<path d="M6.41662 9.5061H1.16992" stroke="#C1A130" stroke-width="1.34319" stroke-linecap="round" stroke-linejoin="round"/>
</svg>
