<svg width="24" height="24" viewBox="0 0 24 24" fill="none" xmlns="http://www.w3.org/2000/svg">
<path d="M6.60964 0.36792V2.0355C4.56642 2.0355 2.5232 2.0355 0.47998 2.0355V23.9746H17.1558V21.4537C17.3415 21.4705 17.5215 21.5058 17.7116 21.5058C21.1632 21.5058 23.9737 18.6953 23.9737 15.2437C23.9737 11.7922 21.1632 8.98378 17.7116 8.98378C17.522 8.98378 17.3411 9.01493 17.1558 9.03155V2.03553C15.1212 2.03553 13.0867 2.03553 11.0522 2.03553V0.367954L6.60964 0.36792ZM7.72136 1.47964H9.94045V3.14722H12.153V4.25894H5.48272V3.14722H7.72136V1.47964ZM1.5917 3.14722H4.371V5.37066H13.2648V3.14722H16.0441V9.23128C13.9416 9.81729 12.2752 11.4587 11.6862 13.5609H7.85381V14.6726H11.4778C11.4606 14.8612 11.4495 15.0507 11.4495 15.2437C11.4495 16.5829 11.8765 17.8221 12.596 18.8416H7.85381V19.9533H13.5991C14.294 20.5609 15.1322 20.9958 16.0441 21.2517V22.8629H1.5917V3.14722ZM17.7116 10.0955C20.5624 10.0955 22.862 12.3929 22.862 15.2437C22.862 18.0944 20.5624 20.3941 17.7116 20.3941C14.8609 20.3941 12.5612 18.0944 12.5612 15.2437C12.5612 12.3929 14.8609 10.0955 17.7116 10.0955ZM17.1558 11.763V16.2099H21.6026V15.0982H18.2675V11.763H17.1558Z" fill="#C1A130"/>
<path d="M4.92676 2.03564V3.14736H7.41076V2.03564H4.92676Z" fill="#C1A130"/>
<path d="M3.25928 12.4492C3.25928 13.5609 3.25928 14.6727 3.25928 15.7844C4.42021 15.7844 5.58115 15.7844 6.74209 15.7844C6.74209 14.6727 6.74209 13.5609 6.74209 12.4492C5.58115 12.4492 4.42021 12.4492 3.25928 12.4492ZM4.371 13.5609C4.79079 13.5609 5.21058 13.5609 5.63037 13.5609C5.63037 13.9315 5.63037 14.3021 5.63037 14.6727C5.21058 14.6727 4.79079 14.6727 4.371 14.6727C4.371 14.3021 4.371 13.9315 4.371 13.5609Z" fill="#C1A130"/>
<path d="M3.25928 7.16846C3.25928 8.28018 3.25928 9.3919 3.25928 10.5036C4.42021 10.5036 5.58115 10.5036 6.74209 10.5036C6.74209 9.3919 6.74209 8.28018 6.74209 7.16846C5.58115 7.16846 4.42021 7.16846 3.25928 7.16846ZM4.371 8.28018C4.79079 8.28018 5.21058 8.28018 5.63037 8.28018C5.63037 8.65075 5.63037 9.02132 5.63037 9.3919C5.21058 9.3919 4.79079 9.3919 4.371 9.3919C4.371 9.02132 4.371 8.65075 4.371 8.28018Z" fill="#C1A130"/>
<path d="M3.25928 17.73C3.25928 18.8417 3.25928 19.9534 3.25928 21.0651C4.42021 21.0651 5.58115 21.0651 6.74209 21.0651C6.74209 19.9534 6.74209 18.8417 6.74209 17.73C5.58115 17.73 4.42021 17.73 3.25928 17.73ZM4.371 18.8417C4.79079 18.8417 5.21058 18.8417 5.63037 18.8417C5.63037 19.2123 5.63037 19.5828 5.63037 19.9534C5.21058 19.9534 4.79079 19.9534 4.371 19.9534C4.371 19.5828 4.371 19.2123 4.371 18.8417Z" fill="#C1A130"/>
<path d="M7.85449 8.28003C7.85449 8.6506 7.85449 9.02118 7.85449 9.39175C10.0779 9.39175 12.3014 9.39175 14.5248 9.39175C14.5248 9.02118 14.5248 8.6506 14.5248 8.28003C12.3014 8.28003 10.0779 8.28003 7.85449 8.28003Z" fill="#C1A130"/>
</svg>
