<svg width="23" height="23" viewBox="0 0 23 23" fill="none" xmlns="http://www.w3.org/2000/svg">
<path d="M11.3703 0.20752C5.12074 0.20752 0.0371094 5.29183 0.0371094 11.541C0.0371094 17.7903 5.12074 22.8738 11.3703 22.8738C17.6195 22.8738 22.7034 17.7903 22.7034 11.541C22.7034 5.29183 17.6195 0.20752 11.3703 0.20752ZM11.3703 21.0862C6.10671 21.0862 1.82472 16.8042 1.82472 11.541C1.82472 6.27712 6.10671 1.99513 11.3703 1.99513C16.6338 1.99513 20.9158 6.27712 20.9158 11.541C20.9158 16.8042 16.6338 21.0862 11.3703 21.0862Z" fill="#C1A130"/>
<path d="M9.57848 9.32011C9.57848 8.60311 10.6271 8.48068 11.5368 8.48068C12.3941 8.48068 13.5656 8.88249 14.5451 9.39031L14.7371 7.4141C14.2472 7.13404 13.1108 6.80169 11.9565 6.73223L12.2362 4.72095H10.365L10.6451 6.73223C8.23196 6.95925 7.44482 8.35818 7.44482 9.52997C7.44482 12.4853 12.9529 11.8564 12.9529 13.6743C12.9529 14.357 12.3064 14.6012 11.1694 14.6012C9.63083 14.6012 8.47621 14.0597 7.88208 13.4996L7.58448 15.7208C8.1446 16.0531 9.28064 16.3503 10.6451 16.4205L10.365 18.3617H12.2362L11.9565 16.4027C14.7894 16.1577 15.2965 14.6536 15.2965 13.6572C15.2966 10.1424 9.57848 11.0163 9.57848 9.32011Z" fill="#C1A130"/>
</svg>
