<svg width="16" height="16" viewBox="0 0 16 16" fill="none" xmlns="http://www.w3.org/2000/svg">
<path d="M12.6075 16.0057H3.373C2.85925 16.0055 2.3523 15.8881 1.89084 15.6623C1.42937 15.4365 1.02557 15.1083 0.710239 14.7027C0.394908 14.2971 0.176373 13.8248 0.0713051 13.3219C-0.0337629 12.819 -0.0225891 12.2988 0.103974 11.8009L1.97551 4.16082C2.00921 4.02423 2.08869 3.9033 2.2007 3.81817C2.31272 3.73304 2.45051 3.68884 2.59114 3.69294H12.903C13.0388 3.68672 13.1729 3.72563 13.2842 3.80358C13.3956 3.88154 13.478 3.99416 13.5187 4.12389L15.8458 11.61C16.0049 12.1185 16.0415 12.6573 15.9527 13.1827C15.8639 13.708 15.6522 14.2049 15.3348 14.6328C15.0226 15.0625 14.6122 15.4113 14.1378 15.6502C13.6633 15.889 13.1387 16.0109 12.6075 16.0057ZM3.05287 4.92421L1.27368 12.0964C1.19445 12.4128 1.1881 12.7431 1.25511 13.0623C1.32212 13.3816 1.46074 13.6815 1.66052 13.9393C1.8603 14.1972 2.11602 14.4064 2.4084 14.551C2.70077 14.6957 3.02218 14.772 3.34837 14.7744H12.5829C12.9179 14.7749 13.2483 14.696 13.5469 14.544C13.8455 14.392 14.1038 14.1714 14.3005 13.9002C14.5029 13.6274 14.638 13.3107 14.6947 12.9758C14.7514 12.641 14.7282 12.2974 14.6268 11.9732L12.4598 4.92421H3.05287Z" fill="white"/>
<path d="M10.4403 8.61804C10.277 8.61804 10.1204 8.55318 10.005 8.43773C9.8895 8.32228 9.82464 8.16569 9.82464 8.00241V3.07732C9.82464 2.58749 9.63005 2.11773 9.28369 1.77136C8.93733 1.425 8.46756 1.23042 7.97773 1.23042C7.4879 1.23042 7.01813 1.425 6.67177 1.77136C6.32541 2.11773 6.13083 2.58749 6.13083 3.07732V8.00241C6.13083 8.16569 6.06596 8.32228 5.95051 8.43773C5.83506 8.55318 5.67847 8.61804 5.51519 8.61804C5.35191 8.61804 5.19532 8.55318 5.07987 8.43773C4.96442 8.32228 4.89955 8.16569 4.89955 8.00241V3.07732C4.89955 2.26094 5.22386 1.47799 5.80113 0.900723C6.3784 0.323453 7.16135 -0.000854492 7.97773 -0.000854492C8.79412 -0.000854492 9.57706 0.323453 10.1543 0.900723C10.7316 1.47799 11.0559 2.26094 11.0559 3.07732V8.00241C11.0559 8.16569 10.991 8.32228 10.8756 8.43773C10.7601 8.55318 10.6036 8.61804 10.4403 8.61804Z" fill="white"/>
</svg>
