<svg width="17" height="19" viewBox="0 0 17 19" fill="none" xmlns="http://www.w3.org/2000/svg">
<path d="M8.49992 8.31248C7.71703 8.31248 6.95173 8.08033 6.30079 7.64538C5.64984 7.21043 5.14249 6.59223 4.8429 5.86894C4.5433 5.14565 4.46491 4.34976 4.61764 3.58192C4.77038 2.81407 5.14737 2.10877 5.70095 1.55518C6.25454 1.0016 6.95984 0.624606 7.72769 0.471873C8.49553 0.31914 9.29142 0.397528 10.0147 0.697125C10.738 0.996722 11.3562 1.50407 11.7912 2.15502C12.2261 2.80596 12.4583 3.57126 12.4583 4.35415C12.4583 5.40396 12.0412 6.41078 11.2989 7.15311C10.5566 7.89544 9.54973 8.31248 8.49992 8.31248ZM8.49992 1.97915C8.03019 1.97915 7.57101 2.11844 7.18044 2.37941C6.78987 2.64038 6.48546 3.0113 6.3057 3.44527C6.12595 3.87925 6.07891 4.35678 6.17055 4.81749C6.26219 5.27819 6.48839 5.70138 6.82054 6.03353C7.15269 6.36568 7.57587 6.59187 8.03658 6.68351C8.49728 6.77515 8.97482 6.72812 9.40879 6.54836C9.84277 6.3686 10.2137 6.06419 10.4747 5.67363C10.7356 5.28306 10.8749 4.82388 10.8749 4.35415C10.8749 3.72426 10.6247 3.12017 10.1793 2.67477C9.7339 2.22937 9.12981 1.97915 8.49992 1.97915Z" fill="white"/>
<path d="M15.6249 18.6041H1.37492C1.16496 18.6041 0.963592 18.5207 0.815126 18.3723C0.666659 18.2238 0.583252 18.0224 0.583252 17.8125V15.4375C0.583252 13.7578 1.25051 12.1469 2.43824 10.9591C3.62597 9.77141 5.23688 9.10415 6.91659 9.10415H10.0833C11.763 9.10415 13.3739 9.77141 14.5616 10.9591C15.7493 12.1469 16.4166 13.7578 16.4166 15.4375V17.8125C16.4166 18.0224 16.3332 18.2238 16.1847 18.3723C16.0362 18.5207 15.8349 18.6041 15.6249 18.6041ZM2.16659 17.0208H14.8333V15.4375C14.8333 14.1777 14.3328 12.9695 13.442 12.0787C12.5512 11.1879 11.343 10.6875 10.0833 10.6875H6.91659C5.65681 10.6875 4.44863 11.1879 3.55783 12.0787C2.66703 12.9695 2.16659 14.1777 2.16659 15.4375V17.0208Z" fill="white"/>
</svg>
